<?xml version="1.0" standalone="no"?>
<!DOCTYPE svg PUBLIC "-//W3C//DTD SVG 1.1//EN" "http://www.w3.org/Graphics/SVG/1.1/DTD/svg11.dtd" >
<svg>
<metadata>
Created by FontForge 20090914 at Fri Feb  3 13:51:33 2023
 By www-data
Copyright &#194;&#169; 2020 by Charles Forman. All rights reserved.
</metadata>
<defs>
<font id="THICCCBOI-ExtraBold" horiz-adv-x="600" >
  <font-face 
    font-family="THICCCBOI Medium"
    font-weight="800"
    font-stretch="normal"
    units-per-em="1000"
    panose-1="0 0 9 0 0 0 0 0 0 0"
    ascent="800"
    descent="-200"
    x-height="500"
    cap-height="700"
    bbox="-603 -365 1558 790.004"
    underline-thickness="50"
    underline-position="-50"
    unicode-range="U+0020-U+FB02"
  />
<missing-glyph horiz-adv-x="476" 
d="M414 -90h-351v842h351v-842zM382 -60v782h-288v-782h288z" />
    <glyph glyph-name="fi" unicode="fi" horiz-adv-x="621" 
d="M351 578c-16 2 -30.6689 3 -44.002 3c-21.333 0 -37.166 -3.66699 -47.499 -11s-15.5 -20.333 -15.5 -39v-31h106v-127h-106v-373h-143v373h-78v127h78v40c0 66 13.833 111.5 41.5 136.5s69.834 37.5 126.501 37.5c22.667 0 50 -1.66699 82 -5v-131zM431.498 589.5
c-15 14.333 -22.5 33.833 -22.5 58.5c0 25.333 7.5 45.333 22.5 60s35.833 22 62.5 22c26 0 46.667 -7.33301 62 -22s23 -34.667 23 -60c0 -24.667 -7.66699 -44.167 -23 -58.5s-36 -21.5 -62 -21.5c-26.667 0 -47.5 7.16699 -62.5 21.5zM421.998 0v500h143v-500h-143z" />
    <glyph glyph-name="fl" unicode="fl" horiz-adv-x="679" 
d="M351 578c-16 2 -30.6689 3 -44.002 3c-21.333 0 -37.166 -3.66699 -47.499 -11s-15.5 -20.333 -15.5 -39v-31h106v-127h-106v-373h-143v373h-78v127h78v40c0 66 13.833 111.5 41.5 136.5s69.834 37.5 126.501 37.5c22.667 0 50 -1.66699 82 -5v-131zM592.498 135
c5 -4.66699 13.5 -6.99902 25.5 -6.99902c8.66699 0 19 1 31 3v-131c-32.667 -4.66699 -58 -7 -76 -7c-43.333 0 -76 11.5 -98 34.5s-33 63.5 -33 121.5v551h143v-542c0 -10.667 2.5 -18.334 7.5 -23.001z" />
    <glyph glyph-name=".notdef" horiz-adv-x="476" 
d="M414 -90h-351v842h351v-842zM382 -60v782h-288v-782h288z" />
    <glyph glyph-name="space" unicode=" " horiz-adv-x="256" 
 />
    <glyph glyph-name="exclam" unicode="!" horiz-adv-x="268" 
d="M199 226h-127l-23 474h171zM77 125.5c13.333 13.667 32.668 20.5 58.001 20.5c24.667 0 43.667 -6.83301 57 -20.5s20 -33.167 20 -58.5s-6.66699 -44.833 -20 -58.5s-32.333 -20.5 -57 -20.5s-43.834 6.83301 -57.501 20.5s-20.5 33.167 -20.5 58.5
s6.66699 44.833 20 58.5z" />
    <glyph glyph-name="quotedbl" unicode="&#x22;" horiz-adv-x="418" 
d="M98 364l-35 191v119h124v-119l-36 -191h-53zM231 555v119h124v-119l-36 -191h-52z" />
    <glyph glyph-name="numbersign" unicode="#" horiz-adv-x="626" 
d="M350 0h-104l56 166h-90l-55 -166h-104l56 166h-93l28 89h95l51 156h-94l27 88h98l55 168h104l-56 -168h90l55 168h104l-57 -168h95l-27 -88h-97l-52 -156h98l-28 -89h-100zM331 255l52 156h-89l-51 -156h88z" />
    <glyph glyph-name="dollar" unicode="$" horiz-adv-x="620" 
d="M265 768l103.996 -0.00390625v-95c80.667 -8.66699 149.334 -38.334 206.001 -89.001l-87 -113c-36 32 -78 52.667 -126 62v-120c45.333 -10.667 84.166 -23.167 116.499 -37.5s59.166 -35.166 80.499 -62.499s32 -62.666 32 -105.999
c0 -61.333 -19.667 -110.833 -59 -148.5s-93.666 -60.167 -162.999 -67.5v-91h-104v91c-97.333 7.33301 -176.666 41.666 -237.999 102.999l85 118c46 -47.333 101.333 -75.666 166 -84.999v136c-45.333 10 -84.166 21.833 -116.499 35.5s-59.166 34.334 -80.499 62.001
s-32 63.834 -32 108.501c0 34 8.5 65.667 25.5 95s41.833 53.833 74.5 73.5s71.334 31.834 116.001 36.501v94zM227.496 452.996c11 -8 27.833 -15.334 50.5 -22.001v111c-21.333 -2 -37.833 -8.16699 -49.5 -18.5s-17.5 -23.166 -17.5 -38.499c0 -13.333 5.5 -24 16.5 -32z
M361.996 126.995c20.667 3.33301 37 10.168 49 20.501s18 23.833 18 40.5c0 14.667 -5.33301 26.167 -16 34.5s-27.667 16.166 -51 23.499v-119z" />
    <glyph glyph-name="percent" unicode="%" horiz-adv-x="765" 
d="M106 365.5c-26 14.333 -46.167 34.166 -60.5 59.499s-21.5 53.333 -21.5 84c0 31.333 7.16699 59.833 21.5 85.5s34.5 45.834 60.5 60.501s56 22 90 22s64.167 -7.33301 90.5 -22s46.666 -34.834 60.999 -60.501s21.5 -54.167 21.5 -85.5
c0 -30.667 -7.16699 -58.667 -21.5 -84s-34.666 -45.166 -60.999 -59.499s-56.5 -21.5 -90.5 -21.5s-64 7.16699 -90 21.5zM212 0h-82l426 667h83zM248.5 451c13.667 14 20.5 33.333 20.5 58c0 26 -6.83301 46.167 -20.5 60.5s-31.167 21.5 -52.5 21.5
s-38.666 -7.16699 -51.999 -21.5s-20 -34.5 -20 -60.5c0 -24.667 6.66699 -44 20 -58s30.666 -21 51.999 -21s38.833 7 52.5 21zM479 10c-26 14.667 -46.167 34.667 -60.5 60s-21.5 53.333 -21.5 84c0 31.333 7.16699 59.833 21.5 85.5s34.5 45.834 60.5 60.501s56 22 90 22
s64 -7.33301 90 -22s46.167 -34.834 60.5 -60.501s21.5 -54.167 21.5 -85.5c0 -30.667 -7.16699 -58.667 -21.5 -84s-34.5 -45.333 -60.5 -60s-56 -22 -90 -22s-64 7.33301 -90 22zM622 95c13.333 14 20 33.667 20 59c0 26 -6.66699 46 -20 60s-31 21 -53 21
s-39.667 -7 -53 -21s-20 -34 -20 -60c0 -24.667 6.83301 -44.167 20.5 -58.5s31.167 -21.5 52.5 -21.5c22 0 39.667 7 53 21z" />
    <glyph glyph-name="ampersand" unicode="&#x26;" horiz-adv-x="653" 
d="M116.5 459c10.333 -22 27.167 -47 50.5 -75c-98.667 -54 -148 -119.667 -148 -197c0 -62 22.833 -109.333 68.5 -142s104.167 -49 175.5 -49c28 0 61.833 5.5 101.5 16.5s77.167 29.833 112.5 56.5l66 -69h178l-160 162c12 24.667 21 49.5 27 74.5s9 53.167 9 84.5h-136
c0 -22 -3 -39.667 -9 -53l-83 91c40.667 30.667 69.5 57.834 86.5 81.501s25.5 52.5 25.5 86.5c0 49.333 -16.5 87.333 -49.5 114s-77.833 40 -134.5 40c-57.333 0 -104.333 -13.333 -141 -40s-55 -64.334 -55 -113.001c0 -24 5.16699 -47 15.5 -69zM345.001 527
c0 -18 -5.33398 -32.833 -16.001 -44.5s-26.667 -24.5 -48 -38.5c-15.333 16.667 -26.666 30.5 -33.999 41.5s-11 23.833 -11 38.5c0 16.667 4.83301 28.5 14.5 35.5s25.167 10.5 46.5 10.5c32 0 48 -14.333 48 -43zM380 166
c-37.333 -35.333 -76.332 -53.001 -116.999 -53.001c-30.667 0 -55.334 6.66699 -74.001 20s-28 31.333 -28 54s6.66699 41.834 20 57.501s38 33.5 74 53.5z" />
    <glyph glyph-name="quotesingle" unicode="'" horiz-adv-x="197" 
d="M53 581v119h124v-119l-35 -191h-53z" />
    <glyph glyph-name="parenleft" unicode="(" horiz-adv-x="311" 
d="M204 -94c-50 52.667 -89.833 119.333 -119.5 200s-44.5 161.334 -44.5 242.001s14.833 161.5 44.5 242.5s69.5 147.5 119.5 199.5l89 -68c-35.333 -63.333 -60.833 -123.833 -76.5 -181.5s-23.5 -121.834 -23.5 -192.501s7.83301 -135 23.5 -193
s41.167 -117.667 76.5 -179z" />
    <glyph glyph-name="parenright" unicode=")" horiz-adv-x="312" 
d="M108 790c50 -52 89.833 -118.499 119.5 -199.499s44.5 -161.833 44.5 -242.5s-14.833 -161.334 -44.5 -242.001s-69.5 -147.334 -119.5 -200.001l-89 70c35.333 61.333 60.833 121 76.5 179s23.5 122.333 23.5 193s-7.83301 134.834 -23.5 192.501
s-41.167 118.167 -76.5 181.5z" />
    <glyph glyph-name="asterisk" unicode="*" horiz-adv-x="355" 
d="M23 469l96 49l-96 50l34 59l91 -58l-5 108h69l-6 -108l91 58l35 -59l-96 -50l96 -49l-35 -59l-91 58l6 -108h-69l5 108l-91 -58z" />
    <glyph glyph-name="plus" unicode="+" horiz-adv-x="506" 
d="M477 294h-176v-200h-95v200h-177v87h177v192h95v-192h176v-87z" />
    <glyph glyph-name="comma" unicode="," horiz-adv-x="263" 
d="M107 -9c-22 6.66699 -36.167 14.667 -42.5 24s-9.5 26.666 -9.5 51.999s6.66699 44.833 20 58.5s32.666 20.5 57.999 20.5s45 -7.16699 59 -21.5s21 -34.166 21 -59.499c-0.666992 -28 -4.16699 -50.5 -10.5 -67.5s-18.166 -37.167 -35.499 -60.5l-56 -73l-43 37z" />
    <glyph glyph-name="hyphen" unicode="-" horiz-adv-x="300" 
d="M270 182h-240v120h240v-120z" />
    <glyph glyph-name="period" unicode="." horiz-adv-x="266" 
d="M77.5 120.5c13 13 31.5 19.5 55.5 19.5s42.5 -6.5 55.5 -19.5s19.5 -31.833 19.5 -56.5s-6.5 -43.5 -19.5 -56.5s-31.5 -19.5 -55.5 -19.5s-42.5 6.5 -55.5 19.5s-19.5 31.833 -19.5 56.5s6.5 43.5 19.5 56.5z" />
    <glyph glyph-name="slash" unicode="/" horiz-adv-x="339" 
d="M237 687h102l-237 -707h-102z" />
    <glyph glyph-name="zero" unicode="0" horiz-adv-x="608" 
d="M150 32.5c-44 30.333 -78 73 -102 128s-36 118.167 -36 189.5s12 134.5 36 189.5s58 97.667 102 128s95.333 45.5 154 45.5s110 -15.167 154 -45.5s77.833 -73 101.5 -128s35.5 -118.167 35.5 -189.5s-11.833 -134.5 -35.5 -189.5s-57.5 -97.667 -101.5 -128
s-95.333 -45.5 -154 -45.5s-110 15.167 -154 45.5zM407 189c25.333 34.667 38 88.334 38 161.001s-12.667 126.334 -38 161.001s-59.666 52 -102.999 52s-77.666 -17.333 -102.999 -52s-38 -88.334 -38 -161.001s12.667 -126.334 38 -161.001s59.666 -52 102.999 -52
s77.666 17.333 102.999 52z" />
    <glyph glyph-name="one" unicode="1" horiz-adv-x="608" 
d="M385 700v-557h184v-143h-530v143h196v393l-98 -65l-80 117l178 112h150z" />
    <glyph glyph-name="two" unicode="2" horiz-adv-x="608" 
d="M572 143l0.00195312 -142.003h-531v32c4.66699 66.667 23.667 131.834 57 195.501s86.333 109.834 159 138.501l33 14c45.333 18 79.333 34.333 102 49s34 33.334 34 56.001c0 19.333 -5.66699 36 -17 50s-25.333 24.5 -42 31.5s-33.334 10.5 -50.001 10.5
c-39.333 0 -72.333 -7.5 -99 -22.5s-42.667 -38.167 -48 -69.5l-141 15c6 44 22.833 82 50.5 114s62.334 56.5 104.001 73.5s86.167 25.5 133.5 25.5c42.667 0 83.5 -9 122.5 -27s70.5 -43.667 94.5 -77s36 -72 36 -116s-10.667 -81 -32 -111s-49.833 -54.833 -85.5 -74.5
s-81.834 -40.167 -138.501 -61.5c-42.667 -16 -74.334 -50.667 -95.001 -104h353z" />
    <glyph glyph-name="three" unicode="3" horiz-adv-x="608" 
d="M547 300c14 -27.333 21.0029 -57 21.0029 -89c0 -42 -11.833 -80 -35.5 -114s-55.834 -60.667 -96.501 -80s-85.667 -29 -135 -29c-48 0 -92.167 9.16699 -132.5 27.5s-72.333 43.833 -96 76.5s-35.834 69 -36.501 109l156 11c4 -24 16.167 -43.833 36.5 -59.5
s44.5 -23.5 72.5 -23.5c34 0 62.167 8.33301 84.5 25s33.5 38 33.5 64c0 26.667 -11.167 48.5 -33.5 65.5s-50.5 25.5 -84.5 25.5h-38v120h38c30 0 54.667 7 74 21s29 32 29 54s-10 40.167 -30 54.5s-45.333 21.5 -76 21.5c-22 0 -42.5 -5 -61.5 -15s-32.167 -23 -39.5 -39
l-148 9c4 34 17.5 64.5 40.5 91.5s52.667 48.167 89 63.5s76.166 23 119.499 23c48.667 0 92 -9 130 -27s67.833 -42.833 89.5 -74.5s32.5 -67.5 32.5 -107.5c0 -26 -5.5 -50.333 -16.5 -73s-26.5 -42.667 -46.5 -60c26 -20 46 -43.667 60 -71z" />
    <glyph glyph-name="four" unicode="4" horiz-adv-x="608" 
d="M509 270h70v-143h-70v-127h-150v127h-334v143l210 430h166l-209 -430h167v145h150v-145z" />
    <glyph glyph-name="five" unicode="5" horiz-adv-x="608" 
d="M310 440c80 0 143.167 -19.001 189.5 -57.001s69.5 -89.667 69.5 -155c0 -74 -23.167 -132.5 -69.5 -175.5s-109.5 -64.5 -189.5 -64.5c-82.667 0 -148.5 18.5 -197.5 55.5s-74.167 87.5 -75.5 151.5l142 17c4 -25.333 17.833 -45.5 41.5 -60.5s53.5 -22.5 89.5 -22.5
c37.333 0 66.5 8.83301 87.5 26.5s31.5 41.834 31.5 72.501c0 26.667 -10.5 47.5 -31.5 62.5s-50.167 22.5 -87.5 22.5h-128v2l-114 -2l48 387h426v-142h-301l-14 -118h83z" />
    <glyph glyph-name="six" unicode="6" horiz-adv-x="608" 
d="M318 490c48.667 -2.66699 92.002 -15.1689 130.002 -37.502s67.667 -52.166 89 -89.499s32 -79 32 -125c0 -48 -11.5 -91 -34.5 -129s-54.833 -67.833 -95.5 -89.5s-86.334 -32.5 -137.001 -32.5s-96.334 10.833 -137.001 32.5s-72.5 51.5 -95.5 89.5s-34.5 81 -34.5 129
c0 46.667 11 89.334 33 128.001l209 334h173zM382.002 163.998c21.333 20 32 44.667 32 74s-10.833 54 -32.5 74s-48.167 30 -79.5 30s-57.833 -9.83301 -79.5 -29.5s-32.5 -44.5 -32.5 -74.5s11 -54.833 33 -74.5s48.333 -29.5 79 -29.5c32 0 58.667 10 80 30z" />
    <glyph glyph-name="seven" unicode="7" horiz-adv-x="608" 
d="M44 558v142h520v-107l-265 -593h-164l249 558h-340z" />
    <glyph glyph-name="eight" unicode="8" horiz-adv-x="608" 
d="M572 206c0 -68 -24.001 -121.668 -72.001 -161.001s-113.333 -59 -196 -59s-148 19.667 -196 59s-72 93 -72 161c0 72 27.333 124 82 156c-44.667 30 -67 76.667 -67 140c0 65.333 22.5 117 67.5 155s106.833 57 185.5 57s140.334 -19 185.001 -57s67 -89.667 67 -155
c0 -62.667 -22.333 -109 -67 -139c55.333 -33.333 83 -85.666 83 -156.999zM225.999 558.999c-19.333 -14 -29 -33 -29 -57s9.5 -42.833 28.5 -56.5s45.167 -20.5 78.5 -20.5s59.333 6.83301 78 20.5s28 32.5 28 56.5s-9.5 43 -28.5 57s-44.833 21 -77.5 21
s-58.667 -7 -78 -21zM394.999 148.499c23.333 16.333 35.001 38.833 35.001 67.5c0 28 -11.5 49.5 -34.5 64.5s-53.5 22.5 -91.5 22.5c-38.667 0 -69.5 -7.5 -92.5 -22.5s-34.5 -36.5 -34.5 -64.5c0 -28.667 11.667 -51.167 35 -67.5s54 -24.5 92 -24.5
c37.333 0 67.666 8.16699 90.999 24.5z" />
    <glyph glyph-name="nine" unicode="9" horiz-adv-x="608" 
d="M521 314l-196.001 -314h-173l133 211c-48.667 2.66699 -92 15 -130 37s-67.833 51.667 -89.5 89s-32.5 79 -32.5 125c0 48 11.5 91.167 34.5 129.5s54.833 68.333 95.5 90s86.667 32.5 138 32.5c50.667 0 96.334 -10.833 137.001 -32.5s72.5 -51.667 95.5 -90
s34.5 -81.5 34.5 -129.5c0 -56 -15.667 -105.333 -47 -148zM220.999 388.5c22 -20.333 48.667 -30.501 80 -30.501c30.667 0 57 10 79 30s33 44.667 33 74c0 30 -11 55 -33 75s-48.333 30 -79 30c-32 0 -58.833 -10.167 -80.5 -30.5s-32.5 -45.166 -32.5 -74.499
c0 -28.667 11 -53.167 33 -73.5z" />
    <glyph glyph-name="colon" unicode=":" horiz-adv-x="263" 
d="M75 469.5c13.333 13.667 32.666 20.5 57.999 20.5c24.667 0 43.667 -6.83301 57 -20.5s20 -33.167 20 -58.5s-6.66699 -44.833 -20 -58.5s-32.333 -20.5 -57 -20.5c-25.333 0 -44.666 6.83301 -57.999 20.5s-20 33.167 -20 58.5s6.66699 44.833 20 58.5zM75 125.5
c13.333 13.667 32.668 20.5 58.001 20.5c24.667 0 43.667 -6.83301 57 -20.5s20 -33.167 20 -58.5s-6.66699 -44.833 -20 -58.5s-32.333 -20.5 -57 -20.5s-43.834 6.83301 -57.501 20.5s-20.5 33.167 -20.5 58.5s6.66699 44.833 20 58.5z" />
    <glyph glyph-name="semicolon" unicode=";" horiz-adv-x="263" 
d="M75 469.5c13.333 13.667 32.666 20.5 57.999 20.5c24.667 0 43.667 -6.83301 57 -20.5s20 -33.167 20 -58.5s-6.66699 -44.833 -20 -58.5s-32.333 -20.5 -57 -20.5c-25.333 0 -44.666 6.83301 -57.999 20.5s-20 33.167 -20 58.5s6.66699 44.833 20 58.5zM107 -9
c-22 6.66699 -36.167 14.667 -42.5 24s-9.5 26.666 -9.5 51.999s6.66699 44.833 20 58.5s32.666 20.5 57.999 20.5s45 -7.16699 59 -21.5s21 -34.166 21 -59.499c-0.666992 -28 -4.16699 -50.5 -10.5 -67.5s-18.166 -37.167 -35.499 -60.5l-56 -73l-43 37z" />
    <glyph glyph-name="less" unicode="&#x3c;" horiz-adv-x="506" 
d="M477 90l-448 194v102l448 194v-103l-349 -143l349 -141v-103z" />
    <glyph glyph-name="equal" unicode="=" horiz-adv-x="506" 
d="M477 384h-448v87h448v-87zM477 198h-448v86h448v-86z" />
    <glyph glyph-name="greater" unicode="&#x3e;" horiz-adv-x="506" 
d="M477 284l-448 -194v103l349 141l-349 143v103l448 -194v-102z" />
    <glyph glyph-name="question" unicode="?" horiz-adv-x="454" 
d="M153 222l0.000976562 114.998c0 30 6.66699 54 20 72s32.333 37 57 57c15.333 12 26.833 22.333 34.5 31s11.5 18.334 11.5 29.001c0 14 -5.5 25.333 -16.5 34s-27.833 13 -50.5 13c-20.667 0 -40.834 -5 -60.501 -15s-37.167 -23.667 -52.5 -41l-89 102
c27.333 31.333 60.333 55 99 71s79 24 121 24c64 0 115.167 -14.5 153.5 -43.5s57.5 -67.5 57.5 -115.5c0 -25.333 -4.33301 -47.333 -13 -66s-18.834 -34.167 -30.501 -46.5s-27.167 -26.5 -46.5 -42.5c-19.333 -15.333 -33.666 -28.666 -42.999 -39.999
s-14 -24.333 -14 -39v-99h-138zM164.001 125.498c13.333 13.667 32.668 20.5 58.001 20.5c24.667 0 43.667 -6.83301 57 -20.5s20 -33.167 20 -58.5s-6.66699 -44.833 -20 -58.5s-32.333 -20.5 -57 -20.5s-43.834 6.83301 -57.501 20.5s-20.5 33.167 -20.5 58.5
s6.66699 44.833 20 58.5z" />
    <glyph glyph-name="at" unicode="@" horiz-adv-x="888" 
d="M816 383c0 -13.333 -0.334961 -23.667 -1.00195 -31l-10 -119c-2.66699 -27.333 -11.834 -53.333 -27.501 -78s-35.167 -44.5 -58.5 -59.5s-47.666 -22.5 -72.999 -22.5c-20.667 0 -40 3.66699 -58 11s-33.333 17.666 -46 30.999c-23.333 -13.333 -49.333 -20 -78 -20
h-47c-25.333 0 -49.5 5 -72.5 15s-42.5 24 -58.5 42c-14.667 15.333 -26 33.333 -34 54s-12 41.667 -12 63c0 8.66699 0.333008 15 1 19l2 24c2 32.667 12.5 63 31.5 91s43.167 50.167 72.5 66.5s60.666 24.5 93.999 24.5h47c31.333 0 60 -8.33301 86 -25l78 -1l-12 -129
v-11l-7 -77c0 -2.66699 -0.666992 -6.66699 -2 -12l-2 -28c1.33301 -2.66699 3.33301 -5.16699 6 -7.5s6 -3.5 10 -3.5c4.66699 0 9.33398 1.33301 14.001 4c7.33301 4 13.333 9.66699 18 17s7.33398 15 8.00098 23l10 118c0.666992 5.33301 1 13.333 1 24
c0 44 -11.667 79.333 -35 106c-16.667 17.333 -37.5 29.833 -62.5 37.5s-49.833 11.5 -74.5 11.5h-100c-30.667 0 -59.167 -4.33301 -85.5 -13s-49.166 -21.334 -68.499 -38.001c-41.333 -35.333 -64.666 -83.666 -69.999 -144.999l-10 -118l-1 -18
c0 -43.333 13.333 -80 40 -110c16.667 -17.333 37 -30.666 61 -39.999s50.333 -14 79 -14h147v-121h-147c-46 0 -88.667 8.16699 -128 24.5s-72.666 39.833 -99.999 70.5c-23.333 24.667 -41 53.167 -53 85.5s-18 66.5 -18 102.5c0 13.333 0.333008 23.333 1 30l10 118
c4.66699 60.667 22.167 114 52.5 160s70.666 81.833 120.999 107.5s106.833 38.5 169.5 38.5h97c47.333 0 90.5 -7.5 129.5 -22.5s71.833 -36.833 98.5 -65.5c25.333 -27.333 43.666 -60 54.999 -98c8 -28 12 -58.667 12 -92zM473.998 214.999c12 0 23 4.66699 33 14
s15.667 20 17 32l6 78v4c0 8.66699 -2.66699 15.667 -8 21c-6.66699 6.66699 -14.667 10 -24 10h-47c-19.333 0 -36.833 -7.33301 -52.5 -22s-24.5 -31.667 -26.5 -51l-2 -23c-1.33301 -18 3.66699 -33 15 -45c12 -12 26 -18 42 -18h47z" />
    <glyph glyph-name="A" unicode="A" horiz-adv-x="688" 
d="M683 0h-160l-49 132h-259l-49 -132h-161l259 700h161zM345 482l-78 -208h155z" />
    <glyph glyph-name="B" unicode="B" horiz-adv-x="626" 
d="M581 304c12 -27.333 18.001 -56.334 18.001 -87.001c0 -38.667 -9.33301 -74.667 -28 -108s-43.834 -59.666 -75.501 -78.999s-66.167 -29 -103.5 -29h-174v-1h-150v700h308c35.333 0 68 -9.16699 98 -27.5s53.833 -43 71.5 -74s26.5 -64.167 26.5 -99.5
c0 -22 -3.5 -43.833 -10.5 -65.5s-17.167 -41.167 -30.5 -58.5c21.333 -20 38 -43.667 50 -71zM218.001 556.999v-129l158 1c14.667 0 28 6.16699 40 18.5s18 27.5 18 45.5c0 18.667 -6 34 -18 46s-25.333 18 -40 18h-158zM392.001 143.999c17.333 0 32.333 7.33301 45 22
s19 32 19 52s-6.33301 37.333 -19 52s-27.667 22 -45 22h-174v-148h174z" />
    <glyph glyph-name="C" unicode="C" horiz-adv-x="743" 
d="M83.5 529c32.333 55.333 76.167 99.1699 131.5 131.503s115.666 48.5 180.999 48.5c66.667 0 128.334 -17.333 185.001 -52s100.667 -80.334 132 -137.001l-132 -71c-18.667 33.333 -44.334 59.833 -77.001 79.5s-68.667 29.5 -108 29.5
c-38 0 -73.167 -9.33301 -105.5 -28s-57.833 -44.167 -76.5 -76.5s-28 -67.5 -28 -105.5s9.5 -73.167 28.5 -105.5s44.5 -58 76.5 -77s67 -28.5 105 -28.5c39.333 0 75.666 10.167 108.999 30.5s59 47.5 77 81.5l133 -72c-31.333 -57.333 -75.5 -103.5 -132.5 -138.5
s-119.167 -52.5 -186.5 -52.5c-65.333 0 -125.666 16.333 -180.999 49s-99.166 76.667 -131.499 132s-48.5 115.666 -48.5 180.999s16.167 125.666 48.5 180.999z" />
    <glyph glyph-name="D" unicode="D" horiz-adv-x="750" 
d="M535.5 653.5c55 -31 98.666 -73.333 130.999 -127s48.5 -113.167 48.5 -178.5s-16 -124.5 -48 -177.5s-75.667 -94.667 -131 -125s-115.666 -45.5 -180.999 -45.5h-287v700h287c65.333 0 125.5 -15.5 180.5 -46.5zM354.999 143c38 0 73.167 9.16797 105.5 27.501
s57.833 43.166 76.5 74.499s28 66 28 104s-9.33301 73 -28 105s-44.167 57.333 -76.5 76s-67.5 28 -105.5 28h-137v-415h137z" />
    <glyph glyph-name="E" unicode="E" horiz-adv-x="535" 
d="M218 285v-142h284v-143h-434v700h428v-142h-278v-130h254v-143h-254z" />
    <glyph glyph-name="F" unicode="F" horiz-adv-x="534" 
d="M496 700v-142h-278v-141h268v-142h-268v-275h-150v700h428z" />
    <glyph glyph-name="G" unicode="G" horiz-adv-x="784" 
d="M368 380l381.998 0.00292969v-63c0 -59.333 -16 -114.333 -48 -165s-75.167 -91 -129.5 -121s-113.166 -45 -176.499 -45c-65.333 0 -125.666 16.333 -180.999 49s-99.166 76.667 -131.499 132s-48.5 115.666 -48.5 180.999s16.167 125.666 48.5 180.999
s76.166 99.166 131.499 131.499s115.666 48.5 180.999 48.5c58.667 0 113.5 -13.333 164.5 -40s93.167 -63 126.5 -109l-119 -93c-18.667 28 -43.167 50.167 -73.5 66.5s-63.166 24.5 -98.499 24.5c-38 0 -73.167 -9.33301 -105.5 -28s-57.833 -44.167 -76.5 -76.5
s-28 -67.5 -28 -105.5s9.5 -73.167 28.5 -105.5s44.5 -58 76.5 -77s67 -28.5 105 -28.5c39.333 0 74.833 9 106.5 27s56.167 42.667 73.5 74h-208v142z" />
    <glyph glyph-name="H" unicode="H" horiz-adv-x="738" 
d="M520 430v270h150v-700h-150v287h-302v-287h-150v700h150v-270h302z" />
    <glyph glyph-name="I" unicode="I" horiz-adv-x="286" 
d="M68 0v700h151v-700h-151z" />
    <glyph glyph-name="J" unicode="J" horiz-adv-x="579" 
d="M367 700l150.001 -0.000976562v-474c0 -45.333 -10.5 -86.166 -31.5 -122.499s-50.667 -64.833 -89 -85.5s-82.5 -31 -132.5 -31c-53.333 0 -99.333 11 -138 33s-69.334 54.667 -92.001 98l123 70c14.667 -24 30.167 -41.167 46.5 -51.5s38.5 -15.5 66.5 -15.5
c64.667 0 97 35 97 105v474z" />
    <glyph glyph-name="K" unicode="K" horiz-adv-x="680" 
d="M677 1l-188 -1l-204 262l-67 -80v-182h-150v700h150v-282l238 282h193l-266 -319z" />
    <glyph glyph-name="L" unicode="L" horiz-adv-x="516" 
d="M218 700v-557h284v-143h-434v700h150z" />
    <glyph glyph-name="M" unicode="M" horiz-adv-x="830" 
d="M612 699v1h150v-700h-150v424l-178 -298h-37l-179 299v-425h-150v700h150v-1l2 1l195 -328l195 328z" />
    <glyph glyph-name="N" unicode="N" horiz-adv-x="693" 
d="M475 301v399h150v-700h-127l-280 438v-438h-150v700h150z" />
    <glyph glyph-name="O" unicode="O" horiz-adv-x="792" 
d="M215 35c-55.333 32.667 -99.166 76.667 -131.499 132s-48.5 115.666 -48.5 180.999s16.167 125.666 48.5 180.999s76.166 99.166 131.499 131.499s115.666 48.5 180.999 48.5s125.666 -16.167 180.999 -48.5s99.166 -76.166 131.499 -131.499
s48.5 -115.666 48.5 -180.999s-16.167 -125.666 -48.5 -180.999s-76.166 -99.333 -131.499 -132s-115.666 -49 -180.999 -49s-125.666 16.333 -180.999 49zM501.5 165.5c32.333 19 58 44.667 77 77s28.5 67.5 28.5 105.5s-9.5 73 -28.5 105s-44.667 57.5 -77 76.5
s-67.5 28.5 -105.5 28.5s-73.167 -9.33301 -105.5 -28s-57.833 -44.167 -76.5 -76.5s-28 -67.5 -28 -105.5s9.5 -73.167 28.5 -105.5s44.5 -58 76.5 -77s67 -28.5 105 -28.5s73.167 9.5 105.5 28.5z" />
    <glyph glyph-name="P" unicode="P" horiz-adv-x="589" 
d="M446 669c35.333 -20.667 63.5 -48.832 84.5 -84.499s31.5 -74.834 31.5 -117.501c0 -42 -10.5 -80.833 -31.5 -116.5s-49.333 -64 -85 -85s-74.5 -31.5 -116.5 -31.5h-111v-234h-150v700h261c42.667 0 81.667 -10.333 117 -31zM329 377.002
c24.667 0 45.832 8.83301 63.499 26.5s26.5 38.834 26.5 63.501c0 25.333 -8.66699 46.666 -26 63.999s-38.666 26 -63.999 26h-111v-180h111z" />
    <glyph glyph-name="Q" unicode="Q" horiz-adv-x="813" 
d="M761 62l-105.998 -106.999l-79 79c-56.667 -32 -116.667 -48 -180 -48c-65.333 0 -125.666 16.333 -180.999 49s-99.166 76.667 -131.499 132s-48.5 115.666 -48.5 180.999s16.167 125.666 48.5 180.999s76.166 99.166 131.499 131.499s115.666 48.5 180.999 48.5
s125.666 -16.167 180.999 -48.5s99.166 -76.166 131.499 -131.499s48.5 -115.666 48.5 -180.999c0 -38.667 -6 -76.167 -18 -112.5s-29 -69.833 -51 -100.5zM462.002 148.001l-72 72l106 106l83 -83c18.667 32 28 67 28 105s-9.5 73 -28.5 105s-44.667 57.5 -77 76.5
s-67.5 28.5 -105.5 28.5s-73.167 -9.33301 -105.5 -28s-57.833 -44.167 -76.5 -76.5s-28 -67.5 -28 -105.5s9.5 -73.167 28.5 -105.5s44.5 -58 76.5 -77s67 -28.5 105 -28.5c22 0 44 3.66699 66 11z" />
    <glyph glyph-name="R" unicode="R" horiz-adv-x="645" 
d="M455 0l-130.001 234.002h-107v-234h-150v700h289c42.667 0 81.834 -10.333 117.501 -31s64 -48.834 85 -84.501s31.5 -74.834 31.5 -117.501c0 -42 -10.167 -80.667 -30.5 -116s-47.833 -63.333 -82.5 -84l150 -267h-173zM217.999 557.002v-180.002h139
c24.667 0 46 8.83301 64 26.5s27 38.834 27 63.501s-8.83301 45.834 -26.5 63.501s-39.167 26.5 -64.5 26.5h-139z" />
    <glyph glyph-name="S" unicode="S" horiz-adv-x="583" 
d="M129.5 33c-47 30.667 -80.168 72.335 -99.501 125.002l127 74c13.333 -33.333 32.166 -58 56.499 -74s55.833 -24 94.5 -24c31.333 0 55.5 7.33301 72.5 22s25.5 31 25.5 49c0 13.333 -4 24.666 -12 33.999s-21.667 18.166 -41 26.499s-47.333 17.833 -84 28.5
c-64 18.667 -115 44 -153 76s-57 77.667 -57 137c0 42 10.5 78.5 31.5 109.5s49 54.833 84 71.5s72.833 25 113.5 25c56.667 0 106.334 -13.5 149.001 -40.5s76 -65.167 100 -114.5l-130 -74c-12.667 28 -28.667 48.5 -48 61.5s-43 19.5 -71 19.5
c-21.333 0 -39.666 -5.83301 -54.999 -17.5s-23 -25.167 -23 -40.5c0 -12.667 3.16699 -23.5 9.5 -32.5s18 -17.5 35 -25.5s42.167 -17 75.5 -27c44.667 -14 83.167 -29.5 115.5 -46.5s59 -40.167 80 -69.5s31.5 -66 31.5 -110c0 -42 -11 -78.833 -33 -110.5
s-52.167 -56 -90.5 -73s-81.5 -25.5 -129.5 -25.5c-69.333 0 -127.5 15.333 -174.5 46z" />
    <glyph glyph-name="T" unicode="T" horiz-adv-x="547" 
d="M534 700v-142h-185v-558h-151v558h-184v142h520z" />
    <glyph glyph-name="U" unicode="U" horiz-adv-x="669" 
d="M458 700l149.999 0.00195312v-464c0 -48.667 -12 -91.834 -36 -129.501s-56.833 -67 -98.5 -88s-88.167 -31.5 -139.5 -31.5s-97.666 10.5 -138.999 31.5s-74 50.333 -98 88s-36 80.834 -36 129.501v464h151v-464c0 -30.667 12 -54.834 36 -72.501s52.667 -26.5 86 -26.5
c36.667 0 66.5 8.66699 89.5 26s34.5 41.666 34.5 72.999v464z" />
    <glyph glyph-name="V" unicode="V" horiz-adv-x="653" 
d="M327 217l163 483h159l-238 -700h-169l-238 700h159z" />
    <glyph glyph-name="W" unicode="W" horiz-adv-x="1003" 
d="M711 242l120 458h156l-192 -700h-161l-132 442l-133 -442h-161l-192 700h156l120 -458l131 458h157z" />
    <glyph glyph-name="X" unicode="X" horiz-adv-x="698" 
d="M501 700h180l-227 -351l226 -349h-180l-151 235l-151 -235h-180l226 349l-227 351h180l152 -236z" />
    <glyph glyph-name="Y" unicode="Y" horiz-adv-x="658" 
d="M329 419l156 281h171l-252 -457v-243h-150v243l-251 457h170z" />
    <glyph glyph-name="Z" unicode="Z" horiz-adv-x="535" 
d="M505 590l-279 -447h282v-143h-470v110l279 448h-277v142h465v-110z" />
    <glyph glyph-name="bracketleft" unicode="[" horiz-adv-x="291" 
d="M150 15h123v-93h-224v868h224v-93h-123v-682z" />
    <glyph glyph-name="backslash" unicode="\" horiz-adv-x="339" 
d="M237 -20l-237 707h102l237 -707h-102z" />
    <glyph glyph-name="bracketright" unicode="]" horiz-adv-x="291" 
d="M18 790h224v-868h-224v93h123v682h-123v93z" />
    <glyph glyph-name="asciicircum" unicode="^" horiz-adv-x="444" 
d="M425 333h-103l-100 238l-99 -238h-104l152 334h104z" />
    <glyph glyph-name="underscore" unicode="_" horiz-adv-x="564" 
d="M-3 -40h570v-93h-570v93z" />
    <glyph glyph-name="grave" unicode="`" horiz-adv-x="258" 
d="M0 700h128l130 -144h-98z" />
    <glyph glyph-name="a" unicode="a" horiz-adv-x="646" 
d="M443 500l142 -0.00195312v-500h-142v38c-22 -16.667 -46.167 -29.5 -72.5 -38.5s-52.833 -13.5 -79.5 -13.5c-52 0 -96.833 11.333 -134.5 34s-66.5 53.834 -86.5 93.501s-30 84.834 -30 135.501s10 96.167 30 136.5s48.833 71.833 86.5 94.5s82.5 34 134.5 34
c27.333 0 54 -4.66699 80 -14s50 -22.333 72 -39v39zM404 157.998c25.333 24 38 55 38 93c0 36.667 -12.667 66.667 -38 90s-56.666 35 -93.999 35s-68 -11.667 -92 -35s-36 -54 -36 -92s12 -68.667 36 -92s54.667 -35 92 -35s68.666 12 93.999 36z" />
    <glyph glyph-name="b" unicode="b" horiz-adv-x="670" 
d="M502.5 480c37.667 -22.667 66.5 -54.165 86.5 -94.498s30 -85.833 30 -136.5s-10 -95.834 -30 -135.501s-48.833 -70.834 -86.5 -93.501s-82.5 -34 -134.5 -34c-30 0 -59 5.33301 -87 16s-53.667 26 -77 46v-48h-143v700h143v-249c23.333 20 49 35.5 77 46.5
s57 16.5 87 16.5c52 0 96.833 -11.333 134.5 -34zM440.5 157.002c23.667 23.333 35.5 54 35.5 92s-11.833 68.667 -35.5 92s-54.167 35 -91.5 35s-68.666 -11.667 -93.999 -35s-38 -53.333 -38 -90c0 -38 12.667 -69 38 -93s56.666 -36 93.999 -36s67.833 11.667 91.5 35z
" />
    <glyph glyph-name="c" unicode="c" horiz-adv-x="529" 
d="M513 98c-24.667 -34.667 -55.832 -62.168 -93.499 -82.501s-78.167 -30.5 -121.5 -30.5c-48 0 -92.167 11.833 -132.5 35.5s-72.333 55.834 -96 96.501s-35.5 84.667 -35.5 132c0 48 11.833 92.167 35.5 132.5s55.667 72.333 96 96s84.5 35.5 132.5 35.5
c43.333 0 83.666 -10 120.999 -30s68.333 -47 93 -81l-118 -78c-28 31.333 -60 47 -96 47c-33.333 0 -62 -12 -86 -36s-36 -52.667 -36 -86s12 -61.833 36 -85.5s52.667 -35.5 86 -35.5c36 0 68 15.667 96 47z" />
    <glyph glyph-name="d" unicode="d" horiz-adv-x="646" 
d="M442 700l142 -0.00195312v-700h-142v38c-22 -16.667 -45.833 -29.5 -71.5 -38.5s-52.167 -13.5 -79.5 -13.5c-52 0 -96.833 11.333 -134.5 34s-66.5 53.834 -86.5 93.501s-30 84.834 -30 135.501s10 96.167 30 136.5s48.833 71.833 86.5 94.5s82.5 34 134.5 34
c26.667 0 53 -4.5 79 -13.5s50 -21.833 72 -38.5v238zM404 157.998c25.333 24 38 55 38 93c0 36.667 -12.667 66.667 -38 90s-56.666 35 -93.999 35s-68 -11.667 -92 -35s-36 -54 -36 -92s12 -68.667 36 -92s54.667 -35 92 -35s68.666 12 93.999 36z" />
    <glyph glyph-name="e" unicode="e" horiz-adv-x="583" 
d="M428.5 478c38.333 -23.333 68.166 -55.001 89.499 -95.001s32 -84.333 32 -133c0 -18.667 -1.33301 -35.667 -4 -51h-370c12.667 -30.667 29.667 -53.5 51 -68.5s49 -22.5 83 -22.5c20.667 0 40.834 4.33301 60.501 13s35.167 20.334 46.5 35.001l108 -64
c-23.333 -34 -53.5 -60 -90.5 -78s-79.5 -27 -127.5 -27c-54 0 -101.667 11.5 -143 34.5s-73.333 54.5 -96 94.5s-34 84.667 -34 134s11.167 94 33.5 134s53.5 71.5 93.5 94.5s85.667 34.5 137 34.5c48.667 0 92.167 -11.667 130.5 -35zM416 309.999
c-4.66699 25.333 -17.833 45 -39.5 59s-48.167 21 -79.5 21c-32.667 0 -61 -7.83301 -85 -23.5s-36.667 -34.5 -38 -56.5h242z" />
    <glyph glyph-name="f" unicode="f" horiz-adv-x="351" 
d="M351 578c-16 2 -30.6689 3 -44.002 3c-21.333 0 -37.166 -3.66699 -47.499 -11s-15.5 -20.333 -15.5 -39v-31h106v-127h-106v-373h-143v373h-78v127h78v40c0 66 13.833 111.5 41.5 136.5s69.834 37.5 126.501 37.5c22.667 0 50 -1.66699 82 -5v-131z" />
    <glyph glyph-name="g" unicode="g" horiz-adv-x="647" 
d="M443 500l142.999 -0.00195312v-475c0 -46.667 -12.167 -88 -36.5 -124s-57.833 -64 -100.5 -84s-90.667 -30 -144 -30c-58 0 -111.167 11.167 -159.5 33.5s-82.166 51.166 -101.499 86.499l122 71c8.66699 -17.333 26 -31.666 52 -42.999s56.333 -17 91 -17
c38.667 0 70.667 10 96 30s38 45.667 38 77v13c-22 -16.667 -45.833 -29.5 -71.5 -38.5s-52.167 -13.5 -79.5 -13.5c-52 0 -96.833 11.333 -134.5 34s-66.5 53.834 -86.5 93.501s-30 84.834 -30 135.501s10 96.167 30 136.5s48.833 71.833 86.5 94.5s82.5 34 134.5 34
c26.667 0 53 -4.5 79 -13.5s50 -21.833 72 -38.5v38zM404.999 157.998c25.333 24 38 55 38 93c0 36.667 -12.667 66.667 -38 90s-56.666 35 -93.999 35s-67.833 -11.667 -91.5 -35s-35.5 -54 -35.5 -92s11.833 -68.667 35.5 -92s54.167 -35 91.5 -35s68.666 12 93.999 36z
" />
    <glyph glyph-name="h" unicode="h" horiz-adv-x="574" 
d="M521 0l-143.004 -0.00195312v295c0 32 -9 55.167 -27 69.5s-39.333 21.5 -64 21.5c-20.667 0 -38.667 -6.5 -54 -19.5s-25 -33.167 -29 -60.5v-306h-143v700h143v-236c36.667 30.667 76.334 46 119.001 46c28.667 0 57.834 -6.16699 87.501 -18.5
s55.334 -34.166 77.001 -65.499s32.834 -73.666 33.501 -126.999v-299z" />
    <glyph glyph-name="i" unicode="i" horiz-adv-x="263" 
d="M72.5 589.5c-15 14.333 -22.5 33.833 -22.5 58.5c0 25.333 7.5 45.333 22.5 60s35.833 22 62.5 22c26 0 46.667 -7.33301 62 -22s23 -34.667 23 -60c0 -24.667 -7.66699 -44.167 -23 -58.5s-36 -21.5 -62 -21.5c-26.667 0 -47.5 7.16699 -62.5 21.5zM63 0v500h143v-500
h-143z" />
    <glyph glyph-name="j" unicode="j" horiz-adv-x="284" 
d="M90.5 574.5c-15 14.333 -22.5 33.835 -22.5 58.502c0 25.333 7.5 45.166 22.5 59.499s35.833 21.5 62.5 21.5c26 0 46.667 -7.33301 62 -22s23 -34.334 23 -59.001s-7.66699 -44.167 -23 -58.5s-36 -21.5 -62 -21.5c-26.667 0 -47.5 7.16699 -62.5 21.5zM82 500.002
l142.001 -0.00195312v-514c0 -43.333 -10 -80.666 -30 -111.999s-48 -54.5 -84 -69.5s-77 -20.833 -123 -17.5v137c5.33301 -0.666992 13 -1 23 -1c25.333 0 43.666 4.83301 54.999 14.5s17 25.834 17 48.501v514z" />
    <glyph glyph-name="k" unicode="k" horiz-adv-x="582" 
d="M576 0h-178l-128 173l-66 -72v-101h-143v700h143v-389l166 189h199l-202 -220z" />
    <glyph glyph-name="l" unicode="l" horiz-adv-x="298" 
d="M211.5 135c5 -4.66699 13.5 -6.99902 25.5 -6.99902c8.66699 0 19 1 31 3v-131c-32.667 -4.66699 -58 -7 -76 -7c-43.333 0 -76 11.5 -98 34.5s-33 63.5 -33 121.5v551h143v-542c0 -10.667 2.5 -18.334 7.5 -23.001z" />
    <glyph glyph-name="m" unicode="m" horiz-adv-x="889" 
d="M728 495c30 -12.667 55.667 -35 77 -67s32 -75 32 -129v-299h-142v299c0 32 -9 55 -27 69s-39.333 21 -64 21c-20.667 0 -38.5 -6.16699 -53.5 -18.5s-24.833 -31.5 -29.5 -57.5v-14v-299h-143v299c0 32 -9 55 -27 69s-39.333 21 -64 21
c-20.667 0 -38.667 -6.33301 -54 -19s-25 -33 -29 -61v-309h-143v500h143v-32c36.667 30.667 76.334 46 119.001 46c29.333 0 59.166 -6.33301 89.499 -19s55.166 -33.667 74.499 -63c17.333 23.333 39.333 42.833 66 58.5s55.334 23.5 86.001 23.5
c29.333 0 59 -6.33301 89 -19z" />
    <glyph glyph-name="n" unicode="n" horiz-adv-x="575" 
d="M414 495c30 -12.667 55.668 -35 77.001 -67s32 -75 32 -129v-299h-143v299c0 32 -8.83301 55 -26.5 69s-38.834 21 -63.501 21s-45.167 -8.66699 -61.5 -26s-24.5 -45 -24.5 -83v-280h-143v500h143v-34c38 32 78.333 48 121 48c29.333 0 59 -6.33301 89 -19z" />
    <glyph glyph-name="o" unicode="o" horiz-adv-x="595" 
d="M165.5 20.5c-40.333 23.667 -72.333 55.834 -96 96.501s-35.5 84.667 -35.5 132c0 48 11.833 92.167 35.5 132.5s55.667 72.333 96 96s84.5 35.5 132.5 35.5c47.333 0 91.166 -11.833 131.499 -35.5s72.333 -55.667 96 -96s35.5 -84.5 35.5 -132.5
c0 -47.333 -11.833 -91.333 -35.5 -132s-55.667 -72.834 -96 -96.501s-84.166 -35.5 -131.499 -35.5c-48 0 -92.167 11.833 -132.5 35.5zM383 163.5c24 23.667 36 52.167 36 85.5s-12 62 -36 86s-52.667 36 -86 36s-61.833 -12 -85.5 -36s-35.5 -52.667 -35.5 -86
s11.833 -61.833 35.5 -85.5s52.167 -35.5 85.5 -35.5s62 11.833 86 35.5z" />
    <glyph glyph-name="p" unicode="p" horiz-adv-x="646" 
d="M489.5 479c37.667 -22.667 66.5 -53.832 86.5 -93.499s30 -84.834 30 -135.501s-10 -96 -30 -136s-48.833 -71.5 -86.5 -94.5s-82.5 -34.5 -134.5 -34.5c-26.667 0 -53 4.5 -79 13.5s-50 21.833 -72 38.5v-237h-143v700h143v-39c22 16.667 45.833 29.5 71.5 38.5
s52.167 13.5 79.5 13.5c52 0 96.833 -11.333 134.5 -34zM427.5 158.502c23.667 23 35.499 53.5 35.499 91.5s-11.833 68.667 -35.5 92s-54.167 35 -91.5 35s-68.666 -12 -93.999 -36s-38 -54.667 -38 -92s12.5 -67.5 37.5 -90.5s56.5 -34.5 94.5 -34.5
c37.333 0 67.833 11.5 91.5 34.5z" />
    <glyph glyph-name="q" unicode="q" horiz-adv-x="646" 
d="M442 500l142 -0.00195312v-700h-142v237c-22 -16.667 -46 -29.5 -72 -38.5s-52.333 -13.5 -79 -13.5c-52 0 -96.833 11.5 -134.5 34.5s-66.5 54.5 -86.5 94.5s-30 85.333 -30 136s10 95.834 30 135.501s48.833 70.834 86.5 93.501s82.5 34 134.5 34
c27.333 0 53.833 -4.5 79.5 -13.5s49.5 -21.833 71.5 -38.5v39zM404.5 158.498c25 23 37.499 53.166 37.499 90.499s-12.667 68 -38 92s-56.666 36 -93.999 36s-68 -11.667 -92 -35s-36 -54 -36 -92c0 -37.333 12 -67.666 36 -90.999s54.667 -35 92 -35
c38 0 69.5 11.5 94.5 34.5z" />
    <glyph glyph-name="r" unicode="r" horiz-adv-x="392" 
d="M375 510l-9.99805 -135c-4.66699 2 -12.334 3 -23.001 3c-40.667 0 -73.834 -11.5 -99.501 -34.5s-38.5 -53.167 -38.5 -90.5v-253h-143v500h143v-81c12 26 31.333 47.667 58 65s59 26 97 26h16z" />
    <glyph glyph-name="s" unicode="s" horiz-adv-x="503" 
d="M210 332.5c14 -5.66699 36.3311 -11.502 66.998 -17.502c39.333 -8 72 -16.833 98 -26.5s48.833 -25.667 68.5 -48s29.5 -53.166 29.5 -92.499c0 -34 -10.333 -63.167 -31 -87.5s-48 -42.666 -82 -54.999s-70.667 -18.5 -110 -18.5c-54 0 -100 9.83301 -138 29.5
s-66.667 48.834 -86 87.501l117 60c16 -42.667 51.667 -64 107 -64c22.667 0 42.5 4.16699 59.5 12.5s25.5 20.166 25.5 35.499c0 13.333 -7.83301 23.333 -23.5 30s-40.5 13.667 -74.5 21c-38.667 8.66699 -71 17.834 -97 27.501s-48.333 24.667 -67 45s-28 47.5 -28 81.5
c0 32.667 9.33301 61.167 28 85.5s43.834 42.833 75.501 55.5s66.167 19 103.5 19c44 0 83.667 -9 119 -27s63 -44 83 -78l-116 -57c-8 16.667 -18.833 29 -32.5 37s-31.5 12 -53.5 12c-19.333 0 -34.666 -3.83301 -45.999 -11.5s-17 -17.834 -17 -30.501
c0 -11.333 7 -19.833 21 -25.5z" />
    <glyph glyph-name="t" unicode="t" horiz-adv-x="398" 
d="M262.5 139c10.333 -7.33301 26.167 -11 47.5 -11c13.333 0 28 1 44 3v-131c-33.333 -3.33301 -61 -5 -83 -5c-56 0 -97.833 12.5 -125.5 37.5s-41.5 70.5 -41.5 136.5v204h-86v127h86v116l143 48v-164h105v-127h-105v-195c0 -18.667 5.16699 -31.667 15.5 -39z" />
    <glyph glyph-name="u" unicode="u" horiz-adv-x="569" 
d="M365 500l143 -0.000976562v-500h-143v34c-38 -32 -78.333 -48 -121 -48c-29.333 0 -59 6.33301 -89 19s-55.667 35 -77 67s-32 75 -32 129v299h143v-299c0 -31.333 9 -54.166 27 -68.499s39.333 -21.5 64 -21.5c24 0 44.167 8.66699 60.5 26s24.5 45 24.5 83v280z" />
    <glyph glyph-name="v" unicode="v" horiz-adv-x="545" 
d="M273 177l117 323h151l-182 -500h-173l-182 500h151z" />
    <glyph glyph-name="w" unicode="w" horiz-adv-x="790" 
d="M548 231l81 269h149l-162 -500h-139l-83 264l-84 -264h-138l-160 500h150l79 -266l77 266h151z" />
    <glyph glyph-name="x" unicode="x" horiz-adv-x="546" 
d="M366 500h174l-180 -251l180 -249l-175 -1l-92 128l-92 -128l-175 1l180 249l-180 251h174l93 -129z" />
    <glyph glyph-name="y" unicode="y" horiz-adv-x="541" 
d="M388 500l148.999 -0.000976562l-168 -493c-28 -72 -65.833 -125.667 -113.5 -161s-104.5 -50.666 -170.5 -45.999v138c4 -0.666992 10 -1 18 -1c28 0 51.333 7.33301 70 22s34.334 35 47.001 61l-216 480h154l131 -287z" />
    <glyph glyph-name="z" unicode="z" horiz-adv-x="481" 
d="M434 408l-195 -273h205v-135h-400v92l199 273h-189v135h380v-92z" />
    <glyph glyph-name="braceleft" unicode="{" horiz-adv-x="297" 
d="M3 395c16.667 0 29.5 6.00488 38.5 18.0049s13.5 28 13.5 48v162c0 33.333 7.5 62.666 22.5 87.999s35.167 44.833 60.5 58.5s52.333 20.5 81 20.5h60v-93h-60c-17.333 0 -32 -6.83301 -44 -20.5s-18 -31.5 -18 -53.5v-177c0 -22.667 -3.83301 -41.834 -11.5 -57.501
s-19.167 -26.5 -34.5 -32.5c15.333 -6.66699 26.833 -17.834 34.5 -33.501s11.5 -34.5 11.5 -56.5v-177c0 -21.333 6 -39 18 -53s26.667 -21 44 -21h60v-94h-60c-29.333 0 -56.5 6.83301 -81.5 20.5s-45 33.167 -60 58.5s-22.5 54.666 -22.5 87.999v163
c0 19.333 -4.5 35.166 -13.5 47.499s-21.833 18.5 -38.5 18.5v78z" />
    <glyph glyph-name="bar" unicode="|" horiz-adv-x="218" 
d="M156 -80h-93v827h93v-827z" />
    <glyph glyph-name="braceright" unicode="}" horiz-adv-x="296" 
d="M293 317c-16.667 0 -29.5 -6.1709 -38.5 -18.5039s-13.5 -28.166 -13.5 -47.499v-163c0 -33.333 -7.5 -62.666 -22.5 -87.999s-35 -44.833 -60 -58.5s-51.833 -20.5 -80.5 -20.5h-61v94h61c17.333 0 32 7 44 21s18 31.667 18 53v177c0 46.667 15.333 76.667 46 90
c-30.667 12 -46 42 -46 90v177c0 22 -6 39.833 -18 53.5s-26.667 20.5 -44 20.5h-61v93h61c28.667 0 55.5 -6.83301 80.5 -20.5s45 -33.167 60 -58.5s22.5 -54.666 22.5 -87.999v-162c0 -19.333 4.5 -35.166 13.5 -47.499s21.833 -18.5 38.5 -18.5v-78z" />
    <glyph glyph-name="asciitilde" unicode="~" horiz-adv-x="513" 
d="M487 656c-6 -74 -19.8301 -133.669 -41.4971 -179.002s-58.5 -68 -110.5 -68c-24 0 -43.5 5.5 -58.5 16.5s-26.333 24 -34 39s-15.167 33.833 -22.5 56.5c-6 20.667 -11.833 35.834 -17.5 45.501s-13.834 14.5 -24.501 14.5c-28.667 0 -47.334 -57.333 -56.001 -172
l-96 11c6 74.667 20 134.5 42 179.5s58.667 67.5 110 67.5c24.667 0 44.5 -5.5 59.5 -16.5s26.333 -24.167 34 -39.5s15.167 -34.666 22.5 -57.999c7.33301 -21.333 13.5 -36.5 18.5 -45.5s12.5 -13.5 22.5 -13.5c18 0 31.167 16.5 39.5 49.5s14.166 74.167 17.499 123.5z
" />
    <glyph glyph-name="uni00A0" unicode="&#xa0;" horiz-adv-x="256" 
 />
    <glyph glyph-name="exclamdown" unicode="&#xa1;" horiz-adv-x="262" 
d="M76 471.5c13.333 13.667 32.666 20.5 57.999 20.5c24.667 0 43.667 -6.83301 57 -20.5s20 -33.167 20 -58.5s-6.66699 -44.833 -20 -58.5s-32.333 -20.5 -57 -20.5c-25.333 0 -44.666 6.83301 -57.999 20.5s-20 33.167 -20 58.5s6.66699 44.833 20 58.5zM46 -178l23 441
h126l22 -441h-171z" />
    <glyph glyph-name="cent" unicode="&#xa2;" horiz-adv-x="500" 
d="M86 407.5c38.667 45 89 72.832 151 83.499v74h102v-75c33.333 -6 62.166 -16.333 86.499 -31s43.5 -32 57.5 -52l-92 -87c-16 20.667 -35.333 34 -58 40v-236c24 6 43.333 19.333 58 40l92 -87c-14 -20 -33.167 -37.667 -57.5 -53s-53.166 -25.666 -86.499 -30.999v-93
h-102v92c-62 10 -112.333 37.667 -151 83s-58 101 -58 167c0 65.333 19.333 120.5 58 165.5zM195 165.499c14 -21 32.667 -35.167 56 -42.5v237c-24.667 -7.33301 -43.667 -21.5 -57 -42.5s-20 -46.167 -20 -75.5c0 -30 7 -55.5 21 -76.5z" />
    <glyph glyph-name="sterling" unicode="&#xa3;" horiz-adv-x="559" 
d="M24 269l0.000976562 89.999h64c-14.667 19.333 -25.667 37.333 -33 54s-11 34.667 -11 54c0 42 12.167 79 36.5 111s55.666 56.5 93.999 73.5s77.5 25.5 117.5 25.5c58.667 0 108 -10 148 -30s71 -51 93 -93l-126 -74c-8.66699 21.333 -21.5 38 -38.5 50
s-35.833 18 -56.5 18c-27.333 0 -49.833 -7.83301 -67.5 -23.5s-26.5 -35.834 -26.5 -60.501c0 -17.333 2.33301 -31.5 7 -42.5s11.167 -22.833 19.5 -35.5l17.5 -27h139v-90h-115c1.33301 -8 2 -14 2 -18c0 -18 -5.33301 -36.167 -16 -54.5s-24.667 -33.166 -42 -44.499
c12.667 4.66699 28 7 46 7c12.667 0 24.167 -1.33301 34.5 -4s21.833 -6.66699 34.5 -12c12 -4.66699 22.167 -8.16699 30.5 -10.5s17.166 -3.5 26.499 -3.5c19.333 0 36 3.33301 50 10s25 15 33 25l62 -126c-32.667 -34 -83 -51 -151 -51c-20.667 0 -39 2.16699 -55 6.5
s-34.667 10.833 -56 19.5c-17.333 6.66699 -30.666 11.334 -39.999 14.001s-19.333 4 -30 4c-31.333 0 -70 -12.667 -116 -38l-53 107c68 34 102 73 102 117c0 16.667 -3.66699 34 -11 52h-113z" />
    <glyph glyph-name="currency" unicode="&#xa4;" horiz-adv-x="536" 
d="M124 163l-63 -62.001l-26 27l62 62c-33.333 42.667 -50 90.334 -50 143.001c0 54.667 17 102.667 51 144l-63 63l26 26l63 -62c40.667 34.667 88.667 52 144 52c26.667 0 52.334 -4.5 77.001 -13.5s46.667 -21.833 66 -38.5l63 62l27 -26l-63 -63
c33.333 -40.667 50 -88.667 50 -144c0 -54 -16.667 -101.667 -50 -143l63 -62l-27 -27l-62 62c-20 -17.333 -42.333 -30.5 -67 -39.5s-50.334 -13.5 -77.001 -13.5c-54.667 0 -102.667 17.667 -144 53zM357.5 177.999c27 16 48.167 37.833 63.5 65.5s23 57.5 23 89.5
c0 32.667 -7.66699 62.667 -23 90s-36.5 49 -63.5 65s-56.833 24 -89.5 24s-62.5 -8 -89.5 -24s-48.167 -37.667 -63.5 -65s-23 -57.333 -23 -90c0 -32 7.66699 -61.833 23 -89.5s36.5 -49.5 63.5 -65.5s56.833 -24 89.5 -24s62.5 8 89.5 24z" />
    <glyph glyph-name="yen" unicode="&#xa5;" horiz-adv-x="651" 
d="M406 0h-160v113h-222v86h222v72h-222v86h167l-199 310h180l154 -255l152 255h181l-199 -310h168v-86h-222v-72h222v-86h-222v-113z" />
    <glyph glyph-name="brokenbar" unicode="&#xa6;" horiz-adv-x="218" 
d="M63 687h93v-316h-93v316zM63 296h93v-316h-93v316z" />
    <glyph glyph-name="section" unicode="&#xa7;" horiz-adv-x="489" 
d="M434 254.5c-14 -22.333 -34.0029 -40.167 -60.0029 -53.5c54 -24 81 -65 81 -123c0 -48.667 -20.167 -87.334 -60.5 -116.001s-91.833 -43 -154.5 -43c-88 0 -161.333 26.333 -220 79l58 90c19.333 -19.333 43.833 -36 73.5 -50s59.167 -21 88.5 -21
c24 0 43 4.16699 57 12.5s21 20.5 21 36.5s-8 27.667 -24 35s-42 15.333 -78 24c-37.333 8.66699 -68 17.667 -92 27s-44.833 24.166 -62.5 44.499s-26.5 47.833 -26.5 82.5c0 30 9.33301 55.833 28 77.5s40.334 37.167 65.001 46.5c-30.667 12 -53.834 28.833 -69.501 50.5
s-23.5 47.167 -23.5 76.5c0 28 8.83301 53.167 26.5 75.5s41.834 39.833 72.501 52.5s65.334 19 104.001 19c86 0 152 -22.333 198 -67l-54 -84c-17.333 16 -38.166 28.833 -62.499 38.5s-49.5 14.5 -75.5 14.5c-22.667 0 -40.334 -4 -53.001 -12s-19 -19.333 -19 -34
c0 -14 7.66699 -24.167 23 -30.5s40 -13.166 74 -20.499c38.667 -8.66699 70.334 -17.5 95.001 -26.5s46 -23.667 64 -44s27 -47.833 27 -82.5c0 -27.333 -7 -52.166 -21 -74.499zM295.997 343.499c-12.667 10.333 -31.333 18.499 -56 24.499
c-24.667 -6 -42.167 -14.5 -52.5 -25.5s-15.5 -24.833 -15.5 -41.5c0 -19.333 8.5 -34.166 25.5 -44.499s38.833 -17.833 65.5 -22.5c34.667 14.667 52 37 52 67c0 18 -6.33301 32.167 -19 42.5z" />
    <glyph glyph-name="dieresis" unicode="&#xa8;" horiz-adv-x="302" 
d="M97 560.5c-14 -14.333 -31.333 -21.5 -52 -21.5s-38.167 7.16699 -52.5 21.5s-21.5 31.833 -21.5 52.5s7.16699 38.167 21.5 52.5s31.833 21.5 52.5 21.5s38 -7.16699 52 -21.5s21 -31.833 21 -52.5s-7 -38.167 -21 -52.5zM310 560.5
c-14.667 -14.333 -32.334 -21.5 -53.001 -21.5c-20 0 -37.333 7.16699 -52 21.5s-22 31.833 -22 52.5s7.33301 38.167 22 52.5s32 21.5 52 21.5c20.667 0 38.334 -7.16699 53.001 -21.5s22 -31.833 22 -52.5s-7.33301 -38.167 -22 -52.5z" />
    <glyph glyph-name="copyright" unicode="&#xa9;" horiz-adv-x="778" 
d="M687.5 161c-31 -52.667 -72.834 -94.499 -125.501 -125.499s-110.334 -46.5 -173.001 -46.5c-62 0 -119.5 15.5 -172.5 46.5s-95 73 -126 126s-46.5 110.5 -46.5 172.5c0 62.667 15.5 120.334 46.5 173.001s72.833 94.5 125.5 125.5s110.334 46.5 173.001 46.5
s120.334 -15.5 173.001 -46.5s94.5 -72.833 125.5 -125.5s46.5 -110.334 46.5 -173.001s-15.5 -120.334 -46.5 -173.001zM654.499 487.501c-27.667 47 -65 84.333 -112 112s-98.167 41.5 -153.5 41.5s-106.5 -13.833 -153.5 -41.5s-84.333 -65 -112 -112
s-41.5 -98.167 -41.5 -153.5s13.833 -106.5 41.5 -153.5s65 -84.333 112 -112s98.167 -41.5 153.5 -41.5s106.5 13.833 153.5 41.5s84.333 65 112 112s41.5 98.167 41.5 153.5s-13.833 106.5 -41.5 153.5zM544.999 192.001
c-18.667 -21.333 -40.8359 -37.9971 -66.5029 -49.9971s-53.5 -18 -83.5 -18c-38 0 -72.833 9.16699 -104.5 27.5s-56.834 43.666 -75.501 75.999s-28 68.166 -28 107.499c0 40 9.33301 76 28 108s43.834 57 75.501 75s66.5 27 104.5 27c30 0 57.667 -5.83301 83 -17.5
s47.333 -28.167 66 -49.5l-33 -33c-13.333 18 -30.166 32.167 -50.499 42.5s-42.166 15.5 -65.499 15.5c-29.333 0 -56.166 -7.16699 -80.499 -21.5s-43.5 -34.333 -57.5 -60s-21 -54.5 -21 -86.5s7.16699 -60.833 21.5 -86.5s33.5 -45.834 57.5 -60.501s50.667 -22 80 -22
c23.333 0 45.333 5.16699 66 15.5s37.667 24.5 51 42.5z" />
    <glyph glyph-name="ordfeminine" unicode="&#xaa;" horiz-adv-x="646" 
d="M443 500l142 -0.00195312v-500h-142v38c-22 -16.667 -46.167 -29.5 -72.5 -38.5s-52.833 -13.5 -79.5 -13.5c-52 0 -96.833 11.333 -134.5 34s-66.5 53.834 -86.5 93.501s-30 84.834 -30 135.501s10 96.167 30 136.5s48.833 71.833 86.5 94.5s82.5 34 134.5 34
c27.333 0 54 -4.66699 80 -14s50 -22.333 72 -39v39zM404 157.998c25.333 24 38 55 38 93c0 36.667 -12.667 66.667 -38 90s-56.666 35 -93.999 35s-68 -11.667 -92 -35s-36 -54 -36 -92s12 -68.667 36 -92s54.667 -35 92 -35s68.666 12 93.999 36z" />
    <glyph glyph-name="guillemotleft" unicode="&#xab;" horiz-adv-x="552" 
d="M320 63h-130l-160 180l160 177h130l-160 -177zM522 63h-129l-160 180l160 177h129l-160 -177z" />
    <glyph glyph-name="logicalnot" unicode="&#xac;" horiz-adv-x="519" 
d="M477 471v-273h-89v186h-359v87h448z" />
    <glyph glyph-name="registered" unicode="&#xae;" horiz-adv-x="494" 
d="M430.5 358.5c-19 -32.333 -44.667 -58 -77 -77s-67.833 -28.5 -106.5 -28.5s-74.167 9.5 -106.5 28.5s-58 44.667 -77 77s-28.5 67.833 -28.5 106.5s9.5 74.167 28.5 106.5s44.667 58 77 77s67.833 28.5 106.5 28.5s74.167 -9.5 106.5 -28.5s58 -44.667 77 -77
s28.5 -67.833 28.5 -106.5s-9.5 -74.167 -28.5 -106.5zM402 555c-16 27.333 -37.667 49 -65 65s-57.333 24 -90 24s-62.667 -8 -90 -24s-49 -37.667 -65 -65s-24 -57.333 -24 -90c0 -32 8 -61.833 24 -89.5s37.667 -49.5 65 -65.5s57.333 -24 90 -24s62.667 8 90 24
s49 37.833 65 65.5s24 57.5 24 89.5c0 32.667 -8 62.667 -24 90zM305 343l-62.998 96h-41v-96h-35v243h99c21.333 0 40 -6.83301 56 -20.5s24 -31.5 24 -53.5c0 -16 -3.83301 -29.333 -11.5 -40s-16.334 -18.667 -26.001 -24s-17.834 -8 -24.501 -8l65 -97h-43z
M295.502 543.5c-9 8.33301 -19.167 12.5 -30.5 12.5h-64v-86h64c11.333 0 21.5 4 30.5 12s13.5 18 13.5 30c0 12.667 -4.5 23.167 -13.5 31.5z" />
    <glyph glyph-name="macron" unicode="&#xaf;" horiz-adv-x="363" 
d="M363 589h-363v79h363v-79z" />
    <glyph glyph-name="degree" unicode="&#xb0;" horiz-adv-x="317" 
d="M278.5 468c-12.333 -21.333 -29.166 -38.168 -50.499 -50.501s-44.666 -18.5 -69.999 -18.5s-48.666 6.16699 -69.999 18.5s-38.166 29.166 -50.499 50.499s-18.5 44.666 -18.5 69.999c0 24.667 6.16699 47.667 18.5 69s29.166 38.333 50.499 51s44.666 19 69.999 19
s48.666 -6.16699 69.999 -18.5s38.166 -29.166 50.499 -50.499s18.5 -44.666 18.5 -69.999s-6.16699 -48.666 -18.5 -69.999zM203 582.998c-12.667 12.667 -27.667 19 -45 19s-32.166 -6.33301 -44.499 -19s-18.5 -27.667 -18.5 -45s6.16699 -32.166 18.5 -44.499
s27.166 -18.5 44.499 -18.5s32.333 6.16699 45 18.5s19 27.166 19 44.499s-6.33301 32.333 -19 45z" />
    <glyph glyph-name="plusminus" unicode="&#xb1;" horiz-adv-x="506" 
d="M477 327h-176v-201h-95v201h-177v86h177v193h95v-193h176v-86zM477 0h-448v86h448v-86z" />
    <glyph glyph-name="uni00B2" unicode="&#xb2;" horiz-adv-x="608" 
d="M572 143l0.00195312 -142.003h-531v32c4.66699 66.667 23.667 131.834 57 195.501s86.333 109.834 159 138.501l33 14c45.333 18 79.333 34.333 102 49s34 33.334 34 56.001c0 19.333 -5.66699 36 -17 50s-25.333 24.5 -42 31.5s-33.334 10.5 -50.001 10.5
c-39.333 0 -72.333 -7.5 -99 -22.5s-42.667 -38.167 -48 -69.5l-141 15c6 44 22.833 82 50.5 114s62.334 56.5 104.001 73.5s86.167 25.5 133.5 25.5c42.667 0 83.5 -9 122.5 -27s70.5 -43.667 94.5 -77s36 -72 36 -116s-10.667 -81 -32 -111s-49.833 -54.833 -85.5 -74.5
s-81.834 -40.167 -138.501 -61.5c-42.667 -16 -74.334 -50.667 -95.001 -104h353z" />
    <glyph glyph-name="uni00B3" unicode="&#xb3;" horiz-adv-x="608" 
d="M547 300c14 -27.333 21.0029 -57 21.0029 -89c0 -42 -11.833 -80 -35.5 -114s-55.834 -60.667 -96.501 -80s-85.667 -29 -135 -29c-48 0 -92.167 9.16699 -132.5 27.5s-72.333 43.833 -96 76.5s-35.834 69 -36.501 109l156 11c4 -24 16.167 -43.833 36.5 -59.5
s44.5 -23.5 72.5 -23.5c34 0 62.167 8.33301 84.5 25s33.5 38 33.5 64c0 26.667 -11.167 48.5 -33.5 65.5s-50.5 25.5 -84.5 25.5h-38v120h38c30 0 54.667 7 74 21s29 32 29 54s-10 40.167 -30 54.5s-45.333 21.5 -76 21.5c-22 0 -42.5 -5 -61.5 -15s-32.167 -23 -39.5 -39
l-148 9c4 34 17.5 64.5 40.5 91.5s52.667 48.167 89 63.5s76.166 23 119.499 23c48.667 0 92 -9 130 -27s67.833 -42.833 89.5 -74.5s32.5 -67.5 32.5 -107.5c0 -26 -5.5 -50.333 -16.5 -73s-26.5 -42.667 -46.5 -60c26 -20 46 -43.667 60 -71z" />
    <glyph glyph-name="acute" unicode="&#xb4;" horiz-adv-x="258" 
d="M0 556l130 144h128l-160 -144h-98z" />
    <glyph glyph-name="uni00B5" unicode="&#xb5;" horiz-adv-x="590" 
d="M202 -184h-143v667h143v-286c0 -55.333 28 -83 84 -83c38.667 0 71.667 17 99 51v318h143v-400c0 -34.667 6 -61 18 -79l-135 -7c-15.333 11.333 -24 32 -26 62c-16.667 -18.667 -37.167 -33.667 -61.5 -45s-49.5 -17 -75.5 -17c-16.667 0 -32 2.33301 -46 7v-188z" />
    <glyph glyph-name="paragraph" unicode="&#xb6;" horiz-adv-x="449" 
d="M342 -100v700.004h-75v-700h-68v423c-31.333 0 -60.166 7.66699 -86.499 23s-47.166 36.166 -62.499 62.499s-23 55.166 -23 86.499s7.66699 60.166 23 86.499s36.166 47.166 62.499 62.499s55.166 23 86.499 23h211v-767h-68z" />
    <glyph glyph-name="periodcentered" unicode="&#xb7;" horiz-adv-x="264" 
d="M57 167v155h152v-155h-152z" />
    <glyph glyph-name="cedilla" unicode="&#xb8;" horiz-adv-x="226" 
d="M47 -188c-20 6 -35.667 14.001 -47 24.001l27 54c26.667 -19.333 54 -29 82 -29c13.333 0 24.833 2.66699 34.5 8s14.5 12.666 14.5 21.999c0 16 -9 24 -27 24c-12 0 -22 -4.66699 -30 -14l-50 29l30 81h68l-26 -61c9.33301 6.66699 21 10 35 10
c18.667 0 34.667 -6.66699 48 -20s20 -30.333 20 -51c0 -26 -10.833 -46.833 -32.5 -62.5s-48.5 -23.5 -80.5 -23.5c-24 0 -46 3 -66 9z" />
    <glyph glyph-name="uni00B9" unicode="&#xb9;" horiz-adv-x="608" 
d="M385 700v-557h184v-143h-530v143h196v393l-98 -65l-80 117l178 112h150z" />
    <glyph glyph-name="ordmasculine" unicode="&#xba;" horiz-adv-x="595" 
d="M165.5 20.5c-40.333 23.667 -72.333 55.834 -96 96.501s-35.5 84.667 -35.5 132c0 48 11.833 92.167 35.5 132.5s55.667 72.333 96 96s84.5 35.5 132.5 35.5c47.333 0 91.166 -11.833 131.499 -35.5s72.333 -55.667 96 -96s35.5 -84.5 35.5 -132.5
c0 -47.333 -11.833 -91.333 -35.5 -132s-55.667 -72.834 -96 -96.501s-84.166 -35.5 -131.499 -35.5c-48 0 -92.167 11.833 -132.5 35.5zM383 163.5c24 23.667 36 52.167 36 85.5s-12 62 -36 86s-52.667 36 -86 36s-61.833 -12 -85.5 -36s-35.5 -52.667 -35.5 -86
s11.833 -61.833 35.5 -85.5s52.167 -35.5 85.5 -35.5s62 11.833 86 35.5z" />
    <glyph glyph-name="guillemotright" unicode="&#xbb;" horiz-adv-x="552" 
d="M320 243l-160 -180h-130l160 180l-160 177h130zM522 243l-160 -180h-129l160 180l-160 177h129z" />
    <glyph glyph-name="questiondown" unicode="&#xbf;" horiz-adv-x="454" 
d="M309 506v-155h-152v155h152zM301 286l-0.000976562 -80.999c0 -30 -6.66699 -54 -20 -72s-32.333 -37 -57 -57c-15.333 -12 -26.833 -22.333 -34.5 -31s-11.5 -18.334 -11.5 -29.001c0 -14 5.5 -25.333 16.5 -34s27.833 -13 50.5 -13c20.667 0 40.834 5 60.501 15
s37.167 23.667 52.5 41l90 -102c-27.333 -31.333 -60.333 -55 -99 -71s-79 -24 -121 -24c-64.667 0 -116.167 14.5 -154.5 43.5s-57.5 67.5 -57.5 115.5c0 25.333 4.33301 47.5 13 66.5s19 34.667 31 47s27.333 26.166 46 41.499c20 16.667 34.5 30.334 43.5 41.001
s13.5 23.667 13.5 39v64h138z" />
    <glyph glyph-name="Agrave" unicode="&#xc0;" 
 />
    <glyph glyph-name="Aacute" unicode="&#xc1;" 
 />
    <glyph glyph-name="Acircumflex" unicode="&#xc2;" 
 />
    <glyph glyph-name="Atilde" unicode="&#xc3;" 
 />
    <glyph glyph-name="Adieresis" unicode="&#xc4;" 
 />
    <glyph glyph-name="Aring" unicode="&#xc5;" 
 />
    <glyph glyph-name="AE" unicode="&#xc6;" 
 />
    <glyph glyph-name="Ccedilla" unicode="&#xc7;" 
 />
    <glyph glyph-name="Egrave" unicode="&#xc8;" 
 />
    <glyph glyph-name="Eacute" unicode="&#xc9;" 
 />
    <glyph glyph-name="Ecircumflex" unicode="&#xca;" 
 />
    <glyph glyph-name="Edieresis" unicode="&#xcb;" 
 />
    <glyph glyph-name="Igrave" unicode="&#xcc;" 
 />
    <glyph glyph-name="Iacute" unicode="&#xcd;" 
 />
    <glyph glyph-name="Icircumflex" unicode="&#xce;" 
 />
    <glyph glyph-name="Idieresis" unicode="&#xcf;" 
 />
    <glyph glyph-name="Eth" unicode="&#xd0;" 
 />
    <glyph glyph-name="Ntilde" unicode="&#xd1;" 
 />
    <glyph glyph-name="Ograve" unicode="&#xd2;" 
 />
    <glyph glyph-name="Oacute" unicode="&#xd3;" 
 />
    <glyph glyph-name="Ocircumflex" unicode="&#xd4;" 
 />
    <glyph glyph-name="Otilde" unicode="&#xd5;" 
 />
    <glyph glyph-name="Odieresis" unicode="&#xd6;" 
 />
    <glyph glyph-name="multiply" unicode="&#xd7;" horiz-adv-x="506" 
d="M315 334l138 -139l-61 -61l-139 139l-138 -139l-62 61l139 139l-139 139l62 61l138 -139l139 139l61 -61z" />
    <glyph glyph-name="Oslash" unicode="&#xd8;" 
 />
    <glyph glyph-name="Ugrave" unicode="&#xd9;" 
 />
    <glyph glyph-name="Uacute" unicode="&#xda;" 
 />
    <glyph glyph-name="Ucircumflex" unicode="&#xdb;" 
 />
    <glyph glyph-name="Udieresis" unicode="&#xdc;" 
 />
    <glyph glyph-name="Yacute" unicode="&#xdd;" 
 />
    <glyph glyph-name="Thorn" unicode="&#xde;" 
 />
    <glyph glyph-name="germandbls" unicode="&#xdf;" 
 />
    <glyph glyph-name="agrave" unicode="&#xe0;" 
 />
    <glyph glyph-name="aacute" unicode="&#xe1;" 
 />
    <glyph glyph-name="acircumflex" unicode="&#xe2;" 
 />
    <glyph glyph-name="atilde" unicode="&#xe3;" 
 />
    <glyph glyph-name="adieresis" unicode="&#xe4;" 
 />
    <glyph glyph-name="aring" unicode="&#xe5;" 
 />
    <glyph glyph-name="ae" unicode="&#xe6;" 
 />
    <glyph glyph-name="ccedilla" unicode="&#xe7;" 
 />
    <glyph glyph-name="egrave" unicode="&#xe8;" 
 />
    <glyph glyph-name="eacute" unicode="&#xe9;" 
 />
    <glyph glyph-name="ecircumflex" unicode="&#xea;" 
 />
    <glyph glyph-name="edieresis" unicode="&#xeb;" 
 />
    <glyph glyph-name="igrave" unicode="&#xec;" 
 />
    <glyph glyph-name="iacute" unicode="&#xed;" 
 />
    <glyph glyph-name="icircumflex" unicode="&#xee;" 
 />
    <glyph glyph-name="idieresis" unicode="&#xef;" 
 />
    <glyph glyph-name="eth" unicode="&#xf0;" 
 />
    <glyph glyph-name="ntilde" unicode="&#xf1;" 
 />
    <glyph glyph-name="ograve" unicode="&#xf2;" 
 />
    <glyph glyph-name="oacute" unicode="&#xf3;" 
 />
    <glyph glyph-name="ocircumflex" unicode="&#xf4;" 
 />
    <glyph glyph-name="otilde" unicode="&#xf5;" 
 />
    <glyph glyph-name="odieresis" unicode="&#xf6;" 
 />
    <glyph glyph-name="divide" unicode="&#xf7;" horiz-adv-x="511" 
d="M301.5 466.5c-13 -13 -28.501 -19.5 -46.501 -19.5c-17.333 0 -32.5 6.5 -45.5 19.5s-19.5 28.5 -19.5 46.5s6.33301 33.167 19 45.5s28 18.5 46 18.5c18.667 0 34.334 -6.16699 47.001 -18.5s19 -27.5 19 -45.5s-6.5 -33.5 -19.5 -46.5zM28.999 381h453v-87h-453v87z
M301.999 115c-12.667 -12.667 -28.334 -19 -47.001 -19c-18 0 -33.333 6.33301 -46 19s-19 28 -19 46s6.33301 33.333 19 46s28 19 46 19c18.667 0 34.334 -6.33301 47.001 -19s19 -28 19 -46s-6.33301 -33.333 -19 -46z" />
    <glyph glyph-name="oslash" unicode="&#xf8;" 
 />
    <glyph glyph-name="ugrave" unicode="&#xf9;" 
 />
    <glyph glyph-name="uacute" unicode="&#xfa;" 
 />
    <glyph glyph-name="ucircumflex" unicode="&#xfb;" 
 />
    <glyph glyph-name="udieresis" unicode="&#xfc;" 
 />
    <glyph glyph-name="yacute" unicode="&#xfd;" 
 />
    <glyph glyph-name="thorn" unicode="&#xfe;" 
 />
    <glyph glyph-name="ydieresis" unicode="&#xff;" 
 />
    <glyph glyph-name="dotlessi" unicode="&#x131;" 
 />
    <glyph glyph-name="Lslash" unicode="&#x141;" 
 />
    <glyph glyph-name="lslash" unicode="&#x142;" 
 />
    <glyph glyph-name="OE" unicode="&#x152;" 
 />
    <glyph glyph-name="oe" unicode="&#x153;" 
 />
    <glyph glyph-name="Scaron" unicode="&#x160;" 
 />
    <glyph glyph-name="scaron" unicode="&#x161;" 
 />
    <glyph glyph-name="Ydieresis" unicode="&#x178;" 
 />
    <glyph glyph-name="Zcaron" unicode="&#x17d;" 
 />
    <glyph glyph-name="zcaron" unicode="&#x17e;" 
 />
    <glyph glyph-name="florin" unicode="&#x192;" horiz-adv-x="461" 
d="M253 234l-87.999 -395.001h-162l87 395h-50v125h77l34 154c10.667 48.667 35.167 88.167 73.5 118.5s82.166 45.5 131.499 45.5c56 0 97.667 -14.667 125 -44l-59 -116c-12 14 -27.333 21 -46 21c-16.667 0 -31.167 -5.16699 -43.5 -15.5s-20.833 -25.166 -25.5 -44.499
l-27 -119h106v-125h-133z" />
    <glyph glyph-name="circumflex" unicode="&#x2c6;" horiz-adv-x="310" 
d="M310 556h-86l-70 85l-68 -85h-86l91 144h126z" />
    <glyph glyph-name="caron" unicode="&#x2c7;" horiz-adv-x="310" 
d="M220 556h-126l-94 144h86l71 -85l67 85h86z" />
    <glyph glyph-name="breve" unicode="&#x2d8;" horiz-adv-x="351" 
d="M351 636c-20.667 -28 -46.1689 -49.666 -76.502 -64.999s-63.166 -23 -98.499 -23s-68.166 7.66699 -98.499 23s-56.166 37 -77.499 65l62 51c13.333 -18.667 29.666 -33.334 48.999 -44.001s41 -16 65 -16c47.333 0 85.333 20 114 60z" />
    <glyph glyph-name="dotaccent" unicode="&#x2d9;" horiz-adv-x="192" 
d="M44.5 560.5c-14.333 14.333 -21.5 31.833 -21.5 52.5s7.16699 38.167 21.5 52.5s31.833 21.5 52.5 21.5c20 0 37.167 -7.16699 51.5 -21.5s21.5 -31.833 21.5 -52.5s-7.16699 -38.167 -21.5 -52.5s-31.5 -21.5 -51.5 -21.5c-20.667 0 -38.167 7.16699 -52.5 21.5z" />
    <glyph glyph-name="ring" unicode="&#x2da;" horiz-adv-x="213" 
d="M32 576c-21.333 21.333 -32 46.333 -32 75c0 29.333 10.5 54.666 31.5 75.999s46.167 32 75.5 32s54.333 -10.667 75 -32s31 -46.666 31 -75.999s-10.333 -54.5 -31 -75.5s-45.667 -31.5 -75 -31.5c-28.667 0 -53.667 10.667 -75 32zM137.5 620.5
c8.33301 8.33301 12.5 18.5 12.5 30.5s-4.16699 22.333 -12.5 31s-18.5 13 -30.5 13s-22.167 -4.33301 -30.5 -13s-12.5 -19 -12.5 -31c0 -11.333 4.16699 -21.333 12.5 -30s18.5 -13 30.5 -13s22.167 4.16699 30.5 12.5z" />
    <glyph glyph-name="ogonek" unicode="&#x2db;" horiz-adv-x="199" 
d="M137 0c-46 -23.333 -69 -53.001 -69 -89.001c0 -13.333 3.33301 -23.166 10 -29.499s15 -9.5 25 -9.5c19.333 0 33 10.667 41 32l55 -35c-20.667 -36.667 -52.667 -55 -96 -55c-30 0 -54.667 7.66699 -74 23s-29 38 -29 68c0 52.667 29.667 95 89 127z" />
    <glyph glyph-name="tilde" unicode="&#x2dc;" horiz-adv-x="331" 
d="M179 564c-11.333 6.66699 -22.668 16 -34.001 28c-8.66699 8 -15.667 13.833 -21 17.5s-11.333 5.5 -18 5.5c-9.33301 0 -17.166 -4.66699 -23.499 -14s-9.5 -23 -9.5 -41h-73c0 44 9.5 77.333 28.5 100s46.5 34 82.5 34c16.667 0 30.5 -3.33301 41.5 -10
s22.167 -15.667 33.5 -27c8.66699 -8 15.667 -13.833 21 -17.5s11.333 -5.5 18 -5.5c10 0 18 4.5 24 13.5s9 22.5 9 40.5h73c0 -44 -9.5 -77.333 -28.5 -100s-46.167 -34 -81.5 -34c-16.667 0 -30.667 3.33301 -42 10z" />
    <glyph glyph-name="hungarumlaut" unicode="&#x2dd;" horiz-adv-x="348" 
d="M0 556l85 144h112l-115 -144h-82zM151 556l85 144h112l-115 -144h-82z" />
    <glyph glyph-name="gravecomb" unicode="&#x300;" horiz-adv-x="0" 
d="M-258 700h128l131 -144h-99z" />
    <glyph glyph-name="acutecomb" unicode="&#x301;" horiz-adv-x="0" 
d="M-258 556l130 144h129l-161 -144h-98z" />
    <glyph glyph-name="uni0302" unicode="&#x302;" horiz-adv-x="0" 
d="M0 556h-86l-70 85l-68 -85h-86l91 144h126z" />
    <glyph glyph-name="tildecomb" unicode="&#x303;" horiz-adv-x="0" 
d="M-152 564c-11.333 6.66699 -22.668 16 -34.001 28c-8.66699 8 -15.667 13.833 -21 17.5s-11.333 5.5 -18 5.5c-9.33301 0 -17.166 -4.66699 -23.499 -14s-9.5 -23 -9.5 -41h-73c0 44 9.5 77.333 28.5 100s46.5 34 82.5 34c16.667 0 30.5 -3.33301 41.5 -10
s22.167 -15.667 33.5 -27c8.66699 -8 15.667 -13.833 21 -17.5s11.333 -5.5 18 -5.5c10 0 18 4.5 24 13.5s9 22.5 9 40.5h73c0 -44 -9.5 -77.333 -28.5 -100s-46.167 -34 -81.5 -34c-16.667 0 -30.667 3.33301 -42 10z" />
    <glyph glyph-name="uni0304" unicode="&#x304;" horiz-adv-x="0" 
d="M0 589h-363v79h363v-79z" />
    <glyph glyph-name="uni0306" unicode="&#x306;" horiz-adv-x="0" 
d="M0 636c-20.667 -28 -46.1689 -49.666 -76.502 -64.999s-63.166 -23 -98.499 -23s-68.166 7.66699 -98.499 23s-56.166 37 -77.499 65l62 51c13.333 -18.667 29.666 -33.334 48.999 -44.001s41 -16 65 -16c47.333 0 85.333 20 114 60z" />
    <glyph glyph-name="uni0307" unicode="&#x307;" horiz-adv-x="0" 
d="M-383 574v155h152v-155h-152z" />
    <glyph glyph-name="uni0308" unicode="&#x308;" horiz-adv-x="0" 
d="M-205 560.5c-14 -14.333 -31.333 -21.5 -52 -21.5s-38.167 7.16699 -52.5 21.5s-21.5 31.833 -21.5 52.5s7.16699 38.167 21.5 52.5s31.833 21.5 52.5 21.5s38 -7.16699 52 -21.5s21 -31.833 21 -52.5s-7 -38.167 -21 -52.5zM8.5 560.5
c-15 -14.333 -32.833 -21.5 -53.5 -21.5c-20 0 -37.333 7.16699 -52 21.5s-22 31.833 -22 52.5s7.33301 38.167 22 52.5s32 21.5 52 21.5c20.667 0 38.5 -7.16699 53.5 -21.5s22.5 -31.833 22.5 -52.5s-7.5 -38.167 -22.5 -52.5z" />
    <glyph glyph-name="uni030A" unicode="&#x30a;" horiz-adv-x="0" 
d="M-181.5 576c-21 21.333 -31.5 46.333 -31.5 75c0 29.333 10.5 54.666 31.5 75.999s46.167 32 75.5 32s54.333 -10.667 75 -32s31 -46.666 31 -75.999s-10.333 -54.5 -31 -75.5s-45.667 -31.5 -75 -31.5s-54.5 10.667 -75.5 32zM-75.5 620.5
c8.33301 8.33301 12.5 18.5 12.5 30.5s-4.16699 22.333 -12.5 31s-18.5 13 -30.5 13s-22.167 -4.33301 -30.5 -13s-12.5 -19 -12.5 -31c0 -11.333 4.16699 -21.333 12.5 -30s18.5 -13 30.5 -13s22.167 4.16699 30.5 12.5z" />
    <glyph glyph-name="uni0326" unicode="&#x326;" horiz-adv-x="0" 
d="M-208 -239v155h153v-155l-97 -126l-43 37l39 89h-52z" />
    <glyph glyph-name="uni0328" unicode="&#x328;" horiz-adv-x="0" 
d="M-62 0c-46 -23.333 -69 -53.001 -69 -89.001c0 -13.333 3.33301 -23.166 10 -29.499s15 -9.5 25 -9.5c19.333 0 33 10.667 41 32l55 -35c-20.667 -36.667 -52.667 -55 -96 -55c-30 0 -54.667 7.66699 -74 23s-29 38 -29 68c0 52.667 29.667 95 89 127z" />
    <glyph glyph-name="uni0335" unicode="&#x335;" horiz-adv-x="0" 
d="M-234 261h-365v140h365v-140z" />
    <glyph glyph-name="uni0337" unicode="&#x337;" horiz-adv-x="0" 
d="M-417 110l-105 88l350 343l105 -89z" />
    <glyph glyph-name="uni0338" unicode="&#x338;" horiz-adv-x="0" 
d="M-535 -36l-68 65l453 540l68 -64z" />
    <glyph glyph-name="tonos" unicode="&#x384;" horiz-adv-x="494" 
d="M211 765h150l-81 -190h-108z" />
    <glyph glyph-name="uni2009" unicode="&#x2009;" horiz-adv-x="463" 
 />
    <glyph glyph-name="endash" unicode="&#x2013;" horiz-adv-x="593" 
d="M563 182h-533v120h533v-120z" />
    <glyph glyph-name="emdash" unicode="&#x2014;" horiz-adv-x="833" 
d="M803 182h-773v120h773v-120z" />
    <glyph glyph-name="quoteleft" unicode="&#x2018;" horiz-adv-x="260" 
d="M154 542c22 -6.66699 36.166 -14.667 42.499 -24s9.5 -27 9.5 -53c0 -25.333 -6.66699 -44.833 -20 -58.5s-32.666 -20.5 -57.999 -20.5c-24.667 0 -44.167 7 -58.5 21s-21.5 33.333 -21.5 58c0 28.667 3.16699 51.667 9.5 69s18.5 38 36.5 62l56 72l43 -37z" />
    <glyph glyph-name="quoteright" unicode="&#x2019;" horiz-adv-x="260" 
d="M106 522c-22 6.66699 -36.168 14.668 -42.501 24.001s-9.5 27 -9.5 53c0 25.333 6.83301 44.666 20.5 57.999s32.834 20 57.501 20s44.167 -7 58.5 -21s21.5 -33.333 21.5 -58c0 -28 -3.16699 -50.667 -9.5 -68s-18.5 -38 -36.5 -62l-56 -72l-43 36z" />
    <glyph glyph-name="quotesinglbase" unicode="&#x201a;" horiz-adv-x="260" 
d="M106 -9c-22 6.66699 -36.167 14.667 -42.5 24s-9.5 26.666 -9.5 51.999s6.66699 44.833 20 58.5s32.666 20.5 57.999 20.5s45 -7.16699 59 -21.5s21 -34.166 21 -59.499c-0.666992 -28 -4.16699 -50.5 -10.5 -67.5s-18.166 -37.167 -35.499 -60.5l-56 -73l-43 37z" />
    <glyph glyph-name="quotereversed" unicode="&#x201b;" horiz-adv-x="260" 
d="M193 432l-42.999 -36.001l-56 72c-18 24 -30.167 44.667 -36.5 62s-9.5 40 -9.5 68c0 24.667 7.16699 44 21.5 58s33.833 21 58.5 21c25.333 0 44.666 -6.66699 57.999 -20s20 -32.666 20 -57.999c0 -26 -3.16699 -43.667 -9.5 -53s-20.5 -17.333 -42.5 -24z" />
    <glyph glyph-name="quotedblleft" unicode="&#x201c;" horiz-adv-x="468" 
d="M162 543c22 -6.66699 36 -14.666 42 -23.999s9 -27 9 -53c0 -24.667 -6.66699 -43.834 -20 -57.501s-32.666 -20.5 -57.999 -20.5c-24 0 -43.167 7 -57.5 21s-21.5 33.333 -21.5 58c0 28 3.16699 50.5 9.5 67.5s18.166 37.833 35.499 62.5l56 72l44 -36zM353 543.001
c22 -6.66699 36.1689 -14.666 42.502 -23.999s9.5 -27 9.5 -53c0 -24.667 -6.83301 -43.834 -20.5 -57.501s-32.834 -20.5 -57.501 -20.5s-44.167 7 -58.5 21s-21.5 33.333 -21.5 58c0 28 3.16699 50.5 9.5 67.5s18.166 37.833 35.499 62.5l56 72l44 -36z" />
    <glyph glyph-name="quotedblright" unicode="&#x201d;" horiz-adv-x="469" 
d="M111 522c-22 6.66699 -36.168 14.668 -42.501 24.001s-9.5 27 -9.5 53c0 25.333 6.83301 44.666 20.5 57.999s32.834 20 57.501 20s44.167 -7 58.5 -21s21.5 -33.333 21.5 -58c0 -28 -3.16699 -50.667 -9.5 -68s-18.5 -38 -36.5 -62l-56 -72l-43 36zM302.999 522.001
c-22 6.66699 -36.002 14.668 -42.002 24.001s-9 27 -9 53c0 25.333 6.83301 44.666 20.5 57.999s32.834 20 57.501 20c24 0 43.167 -7 57.5 -21s21.5 -33.333 21.5 -58c0 -28 -3.16699 -50.5 -9.5 -67.5s-18.166 -37.833 -35.499 -62.5l-56 -72l-44 36z" />
    <glyph glyph-name="quotedblbase" unicode="&#x201e;" horiz-adv-x="479" 
d="M118 -6c-22 6.66699 -36.168 14.667 -42.501 24s-9.5 27 -9.5 53c0 25.333 6.83301 44.833 20.5 58.5s32.834 20.5 57.501 20.5s44.167 -7 58.5 -21s21.5 -33.333 21.5 -58c0 -28.667 -3 -51.5 -9 -68.5s-18 -37.833 -36 -62.5l-56 -72l-44 36zM310.999 -6
c-22 6.66699 -36.166 14.666 -42.499 23.999s-9.5 27 -9.5 53c0 25.333 6.66699 44.833 20 58.5s32.666 20.5 57.999 20.5c24.667 0 44.167 -7.16699 58.5 -21.5s21.5 -34.166 21.5 -59.499c-0.666992 -28.667 -4 -51.5 -10 -68.5s-18 -37.167 -36 -60.5l-56 -72l-43 36z
" />
    <glyph glyph-name="dagger" unicode="&#x2020;" horiz-adv-x="281" 
d="M173 584l89 3v-67l-89 4l4 -197h-74l5 197l-89 -4v67l89 -3l-5 93h74z" />
    <glyph glyph-name="daggerdbl" unicode="&#x2021;" horiz-adv-x="281" 
d="M177 677l-4 -93l89 3v-67l-89 4v-189l89 4v-67l-89 3l4 -95h-74l4 95l-88 -3v67l88 -4v189l-88 -4v67l88 -3l-4 93h74z" />
    <glyph glyph-name="bullet" unicode="&#x2022;" horiz-adv-x="358" 
d="M285.5 182c-11 -18.667 -25.833 -33.5 -44.5 -44.5s-39 -16.5 -61 -16.5s-42.333 5.5 -61 16.5s-33.5 25.833 -44.5 44.5s-16.5 38.667 -16.5 60c0 33.333 12 62 36 86s52.667 36 86 36c34 0 62.833 -11.833 86.5 -35.5s35.5 -52.5 35.5 -86.5
c0 -21.333 -5.5 -41.333 -16.5 -60z" />
    <glyph glyph-name="ellipsis" unicode="&#x2026;" horiz-adv-x="791" 
d="M82.5 125.5c13.667 13.667 32.834 20.5 57.501 20.5s43.667 -6.83301 57 -20.5s20 -33.167 20 -58.5s-6.66699 -44.833 -20 -58.5s-32.333 -20.5 -57 -20.5s-43.834 6.83301 -57.501 20.5s-20.5 33.167 -20.5 58.5s6.83301 44.833 20.5 58.5zM337.5 125.5
c13.667 13.667 32.834 20.5 57.501 20.5s43.667 -6.83301 57 -20.5s20 -33.167 20 -58.5s-6.66699 -44.833 -20 -58.5s-32.333 -20.5 -57 -20.5s-43.834 6.83301 -57.501 20.5s-20.5 33.167 -20.5 58.5s6.83301 44.833 20.5 58.5zM592.5 125.5
c13.667 13.667 32.834 20.5 57.501 20.5s43.667 -6.83301 57 -20.5s20 -33.167 20 -58.5s-6.66699 -44.833 -20 -58.5s-32.333 -20.5 -57 -20.5s-43.834 6.83301 -57.501 20.5s-20.5 33.167 -20.5 58.5s6.83301 44.833 20.5 58.5z" />
    <glyph glyph-name="perthousand" unicode="&#x2030;" horiz-adv-x="1133" 
d="M347.5 425c-14.333 -25.333 -34.666 -45.166 -60.999 -59.499s-56.5 -21.5 -90.5 -21.5s-64 7.16699 -90 21.5s-46.167 34.166 -60.5 59.499s-21.5 53.333 -21.5 84c0 31.333 7.16699 59.833 21.5 85.5s34.5 45.834 60.5 60.501s56 22 90 22s64.167 -7.33301 90.5 -22
s46.666 -34.834 60.999 -60.501s21.5 -54.167 21.5 -85.5c0 -30.667 -7.16699 -58.667 -21.5 -84zM639 667l-427 -667h-82l426 667h83zM249 576.5c-13.333 15.667 -31 23.5 -53 23.5c-21.333 0 -38.666 -7.83301 -51.999 -23.5s-20 -38.167 -20 -67.5
c0 -28 6.66699 -49.667 20 -65s30.666 -23 51.999 -23s38.833 7.66699 52.5 23s20.5 37 20.5 65c0 29.333 -6.66699 51.833 -20 67.5zM719.5 70c-14.333 -25.333 -34.5 -45.333 -60.5 -60s-56 -22 -90 -22s-64 7.33301 -90 22s-46.167 34.667 -60.5 60
s-21.5 53.333 -21.5 84c0 31.333 7.16699 59.833 21.5 85.5s34.5 45.834 60.5 60.501s56 22 90 22s64 -7.33301 90 -22s46.167 -34.834 60.5 -60.501s21.5 -54.167 21.5 -85.5c0 -30.667 -7.16699 -58.667 -21.5 -84zM1087.5 70
c-14.333 -25.333 -34.666 -45.333 -60.999 -60s-56.5 -22 -90.5 -22s-64 7.33301 -90 22s-46 34.667 -60 60s-21 53.333 -21 84c0 31.333 7 59.833 21 85.5s34 45.834 60 60.501s56 22 90 22s64.167 -7.33301 90.5 -22s46.666 -34.834 60.999 -60.501
s21.5 -54.167 21.5 -85.5c0 -30.667 -7.16699 -58.667 -21.5 -84zM622 220.5c-13.333 15.667 -31 23.5 -53 23.5s-39.667 -7.83301 -53 -23.5s-20 -37.834 -20 -66.501c0 -28 6.66699 -49.833 20 -65.5s31 -23.5 53 -23.5s39.667 7.83301 53 23.5s20 37.5 20 65.5
c0 28.667 -6.66699 50.834 -20 66.501zM989.5 220.5c-13.667 15.667 -31.5 23.5 -53.5 23.5c-21.333 0 -38.666 -7.83301 -51.999 -23.5s-20 -37.834 -20 -66.501c0 -28 6.66699 -49.833 20 -65.5s30.666 -23.5 51.999 -23.5c22 0 39.833 7.83301 53.5 23.5
s20.5 37.5 20.5 65.5c0 28.667 -6.83301 50.834 -20.5 66.501z" />
    <glyph glyph-name="guilsinglleft" unicode="&#x2039;" horiz-adv-x="350" 
d="M320 63h-130l-160 180l160 177h130l-160 -177z" />
    <glyph glyph-name="guilsinglright" unicode="&#x203a;" horiz-adv-x="350" 
d="M320 243l-160 -180h-130l160 180l-160 177h130z" />
    <glyph glyph-name="colonmonetary" unicode="&#x20a1;" horiz-adv-x="701" 
d="M365 -10l-28.9961 -89.999h-31l31 94c-34 5.33301 -64.333 15 -91 29l-41 -123h-31l46 138c-48 30.667 -85.667 71.667 -113 123s-41 108.666 -41 171.999c0 66 14.667 125.167 44 177.5s69.333 93.333 120 123s107 44.5 169 44.5l36 -2l31 92h31l-33 -97
c30.667 -6 60.667 -17.333 90 -34l44 131h31l-50 -147c17.333 -12 34.666 -28 51.999 -48l-25 -22c-10 12 -22.667 24.333 -38 37l-191 -569c3.33301 -0.666992 10.666 -1 21.999 -1c41.333 0 80.166 8.66699 116.499 26s66.5 41 90.5 71l26 -21
c-62.667 -70.667 -140.334 -106 -233.001 -106zM134.504 180.001c23 -46 54.833 -82.999 95.5 -110.999l194 578c-3.33301 0.666992 -12 1 -26 1c-56 0 -106.667 -13.5 -152 -40.5s-81 -64.333 -107 -112s-39 -101.834 -39 -162.501c0 -56 11.5 -107 34.5 -153z
M256.004 53.002c25.333 -14.667 55.333 -25 90 -31l196 584c-28 18 -57.333 30 -88 36z" />
    <glyph glyph-name="frenchfranc" unicode="&#x20a3;" horiz-adv-x="586" 
d="M71 181v486h481v-139h-322v-120h315v-139h-315v-88h141v-80h-141v-101h-159v101h-63v80h63z" />
    <glyph glyph-name="lira" unicode="&#x20a4;" horiz-adv-x="559" 
d="M401 406v-71.001h-132c9.33301 -16.667 15.333 -32.334 18 -47.001h114v-71h-125c-6.66699 -26 -22 -47.667 -46 -65c12.667 4.66699 28 7 46 7c12.667 0 24.167 -1.33301 34.5 -4s21.833 -6.66699 34.5 -12c12 -4.66699 22.167 -8.16699 30.5 -10.5
s17.166 -3.5 26.499 -3.5c19.333 0 36 3.33301 50 10s25 15 33 25l62 -126c-32.667 -34 -83 -51 -151 -51c-20.667 0 -39 2.16699 -55 6.5s-34.667 10.833 -56 19.5c-17.333 6.66699 -30.666 11.334 -39.999 14.001s-19.333 4 -30 4c-31.333 0 -70 -12.667 -116 -38l-53 107
c30 15.333 54.333 32.833 73 52.5s28.334 41.167 29.001 64.5h-124v71h105c-4.66699 10.667 -14.667 26.334 -30 47.001h-75v71h38c-12 20.667 -18 41 -18 61c0 42 12.167 79 36.5 111s55.666 56.5 93.999 73.5s77.5 25.5 117.5 25.5c58.667 0 108 -10 148 -30
s71 -51 93 -93l-126 -74c-8.66699 21.333 -21.5 38 -38.5 50s-35.833 18 -56.5 18c-27.333 0 -49.833 -7.83301 -67.5 -23.5s-26.5 -35.834 -26.5 -60.501c0 -19.333 6.33301 -38.666 19 -57.999h164z" />
    <glyph glyph-name="peseta" unicode="&#x20a7;" horiz-adv-x="688" 
d="M621 386c-7.33301 -59.333 -30.833 -107.666 -70.5 -144.999s-91.167 -56 -154.5 -56h-166v-185h-159v386h-63v80h63v201h325c63.333 0 114.833 -18.833 154.5 -56.5s63.167 -85.834 70.5 -144.501h63v-80h-63zM454 466c-5.33301 19.333 -14.833 34.5 -28.5 45.5
s-30.167 16.5 -49.5 16.5h-146v-62h224zM376 324c19.333 0 36.167 5.5 50.5 16.5s23.833 26.167 28.5 45.5h-225v-62h146z" />
    <glyph glyph-name="uni20A8" unicode="&#x20a8;" horiz-adv-x="1087" 
d="M437 0l-119.998 229.999h-95v-230h-159v667h324c47.333 0 88.166 -9.5 122.499 -28.5s60.666 -45.167 78.999 -78.5s27.5 -70.666 27.5 -111.999c0 -53.333 -13.5 -97 -40.5 -131s-59.833 -56.667 -98.5 -68l142 -249h-182zM364.002 368.999c26 0 47.5 7.16699 64.5 21.5
s25.5 33.833 25.5 58.5c0 24 -8.5 43.167 -25.5 57.5s-38.5 21.5 -64.5 21.5h-142v-159h142zM722.502 8.49902c-40.333 13.667 -73.167 31.8301 -98.5 54.4971l60 96c18.667 -17.333 44.5 -32.333 77.5 -45s63.5 -19 91.5 -19c23.333 0 41 4 53 12s18 18.667 18 32
c0 12.667 -7.33301 21.834 -22 27.501s-38.334 11.834 -71.001 18.501c-39.333 8 -71.5 16.5 -96.5 25.5s-46.833 23.833 -65.5 44.5s-28 49.334 -28 86.001c0 28 8 53.667 24 77s39.333 42 70 56s67 21 109 21c76.667 0 143 -21.667 199 -65l-55 -92
c-16.667 15.333 -37.834 28.166 -63.501 38.499s-52.167 15.5 -79.5 15.5c-20 0 -36.167 -3.83301 -48.5 -11.5s-18.5 -17.5 -18.5 -29.5c0 -10.667 6.83301 -18.667 20.5 -24s35.167 -10.666 64.5 -15.999c39.333 -8 72.333 -16.833 99 -26.5s49.834 -25.5 69.501 -47.5
s29.5 -52 29.5 -90c0 -30.667 -8.66699 -58 -26 -82s-42.166 -42.833 -74.499 -56.5s-70.5 -20.5 -114.5 -20.5c-42 0 -83.167 6.83301 -123.5 20.5z" />
    <glyph glyph-name="uni20AA" unicode="&#x20aa;" horiz-adv-x="852" 
d="M357 550c86 0 147 -18.668 183 -56.001s54 -92 54 -164v-150h-134v137c0 38.667 -7.5 66.834 -22.5 84.501s-41.833 26.5 -80.5 26.5h-164v-428h-134v550h298zM258 -0.000976562l0.000976562 368.999h134v-247h164c38.667 0 65.5 8.83301 80.5 26.5
s22.5 45.834 22.5 84.501v317h134v-329c0 -72.667 -17.833 -127.667 -53.5 -165s-96.834 -56 -183.501 -56h-298z" />
    <glyph glyph-name="Euro" unicode="&#x20ac;" horiz-adv-x="713" 
d="M260 17c-46.667 19.333 -86.498 47.002 -119.498 83.002s-56.833 77.667 -71.5 125h-50v79h36c-0.666992 6 -1 15.667 -1 29s0.333008 24 1 32h-36v79h51c22.667 71.333 64.834 128.166 126.501 170.499s133.5 63.5 215.5 63.5c71.333 0 130.166 -16.167 176.499 -48.5
s82.5 -73.5 108.5 -123.5l-136 -66c-12.667 28 -32.667 51.167 -60 69.5s-57 27.5 -89 27.5c-35.333 0 -67.166 -8.33301 -95.499 -25s-49.833 -39.334 -64.5 -68.001h220v-79h-254c-1.33301 -6.66699 -2 -17.334 -2 -32.001c0 -12 0.666992 -21.667 2 -29h254v-79h-223
c15.333 -29.333 37.333 -52.666 66 -69.999s61 -26 97 -26c32 0 61.667 9.16699 89 27.5s47.333 41.5 60 69.5l137 -65c-26.667 -50 -63.334 -91.333 -110.001 -124s-105.334 -49 -176.001 -49c-54.667 0 -105.334 9.66699 -152.001 29z" />
    <glyph glyph-name="uni2113" unicode="&#x2113;" horiz-adv-x="540" 
d="M202 152c0 -15.333 3.83398 -27.667 11.501 -37s18.167 -14 31.5 -14c17.333 0 31.333 4.33301 42 13l28 -94c-11.333 -10.667 -26.833 -18.667 -46.5 -24s-40.834 -8 -63.501 -8c-46 0 -81.667 11.333 -107 34s-38 57.334 -38 104.001v356
c0 37.333 10.167 70.833 30.5 100.5s48.833 52.834 85.5 69.501s78 25 124 25c38 0 73.833 -6.33301 107.5 -19s60.5 -30.334 80.5 -53.001s30 -48.667 30 -78c0 -34.667 -14 -66.834 -42 -96.501s-67.333 -61.167 -118 -94.5l-156 -103v-81zM310.001 435.999
c27.333 18 46.333 32.832 57 44.499s16 24.834 16 39.501c0 17.333 -8.5 31.5 -25.5 42.5s-37.167 16.5 -60.5 16.5c-29.333 0 -52.5 -8.66699 -69.5 -26s-25.5 -41 -25.5 -71v-118z" />
    <glyph glyph-name="uni2116" unicode="&#x2116;" horiz-adv-x="1140" 
d="M845 372.5c-26.667 15 -47.167 35.168 -61.5 60.501s-21.5 52.666 -21.5 81.999c0 30 7.16699 57.5 21.5 82.5s34.833 45 61.5 60s57.334 22.5 92.001 22.5c35.333 0 66.333 -7.5 93 -22.5s47.167 -35 61.5 -60s21.5 -52.5 21.5 -82.5s-7.16699 -57.5 -21.5 -82.5
s-34.833 -45 -61.5 -60s-57.667 -22.5 -93 -22.5c-34.667 0 -65.334 7.5 -92.001 22.5zM513 667.001h160v-667h-154l-297 407v-407h-159v667h164l286 -389v389zM989 454.001c12.667 14.667 19.001 35 19.001 61s-6.33301 46.167 -19 60.5s-30 21.5 -52 21.5
s-39 -7.16699 -51 -21.5s-18 -34.5 -18 -60.5c0 -26.667 6.16699 -47.167 18.5 -61.5s29.166 -21.5 50.499 -21.5c22 0 39.333 7.33301 52 22z" />
    <glyph glyph-name="uni2117" unicode="&#x2117;" horiz-adv-x="778" 
d="M687.5 161.5c-31 -53 -73.001 -94.999 -126.001 -125.999s-110.5 -46.5 -172.5 -46.5s-119.5 15.5 -172.5 46.5s-95 73 -126 126s-46.5 110.5 -46.5 172.5s15.5 119.5 46.5 172.5s73 95 126 126s110.5 46.5 172.5 46.5c62.667 0 120.334 -15.5 173.001 -46.5
s94.5 -72.833 125.5 -125.5s46.5 -110.334 46.5 -173.001c0 -62 -15.5 -119.5 -46.5 -172.5zM654.499 487.501c-27.667 47 -65 84.333 -112 112s-98.167 41.5 -153.5 41.5s-106.5 -13.833 -153.5 -41.5s-84.333 -65 -112 -112s-41.5 -98.167 -41.5 -153.5
s13.833 -106.5 41.5 -153.5s65 -84.333 112 -112s98.167 -41.5 153.5 -41.5s106.5 13.833 153.5 41.5s84.333 65 112 112s41.5 98.167 41.5 153.5s-13.833 106.5 -41.5 153.5zM518.999 330.501c-24.667 -22.333 -54.667 -33.5 -90 -33.5h-112v-166h-48v405h160
c34.667 0 64.5 -11.167 89.5 -33.5s37.5 -51.5 37.5 -87.5c0 -34 -12.333 -62.167 -37 -84.5zM483.499 471.001c-15 14.667 -33.167 22 -54.5 22h-112v-153h112c20.667 0 38.667 7.16699 54 21.5s23 32.166 23 53.499c0 22.667 -7.5 41.334 -22.5 56.001z" />
    <glyph glyph-name="uni2120" unicode="&#x2120;" horiz-adv-x="476" 
d="M165.5 457c-15 -12 -36.5 -18.002 -64.5 -18.002c-36 0 -64.667 12 -86 36l18 21c19.333 -21.333 41.333 -32 66 -32c37.333 0 56 13 56 39c0 11.333 -6.66699 21 -20 29s-29.333 13.333 -48 16s-34.667 9.33398 -48 20.001s-20 24.334 -20 41.001
c0 18.667 7.5 34 22.5 46s34.167 18 57.5 18c36.667 0 64 -10.667 82 -32l-18 -19c-14.667 18 -35.667 27 -63 27c-14 0 -25.5 -3.33301 -34.5 -10s-13.5 -15.334 -13.5 -26.001c0 -19.333 22.667 -33 68 -41c19.333 -3.33301 35.5 -10.666 48.5 -21.999s19.5 -26 19.5 -44
c0 -20.667 -7.5 -37 -22.5 -49zM396 666.998h43v-220h-28v182l-75 -182h-8l-75 182v-182h-28v220h43l64 -160z" />
    <glyph glyph-name="trademark" unicode="&#x2122;" horiz-adv-x="356" 
d="M65 667h85v-15h-34v-109h-16v109h-35v15zM267 667h24v-124h-16v102l-42 -69h-4l-43 69v-102h-15v124h24l36 -57z" />
    <glyph glyph-name="uni2126" unicode="&#x2126;" horiz-adv-x="766" 
d="M162 140c-40.667 28 -72.8301 61.5 -96.4971 100.5s-35.5 82.5 -35.5 130.5c0 62 15.167 116.333 45.5 163s72.333 82.334 126 107.001s114.167 37 181.5 37s127.833 -12.333 181.5 -37s95.667 -60.334 126 -107.001s45.5 -101 45.5 -163
c0 -48 -11.833 -91.5 -35.5 -130.5s-55.834 -72.5 -96.501 -100.5h115v-140h-278v140c41.333 11.333 73.666 35.333 96.999 72s35 77.667 35 123c0 33.333 -6.66699 65.333 -20 96s-34.333 55.834 -63 75.501s-64.334 29.5 -107.001 29.5
c-43.333 0 -79.333 -9.83301 -108 -29.5s-49.667 -44.834 -63 -75.501s-20 -62.667 -20 -96c0 -45.333 11.833 -86.333 35.5 -123s56.167 -60.667 97.5 -72v-140h-278v140h115z" />
    <glyph glyph-name="estimated" unicode="&#x212e;" horiz-adv-x="842" 
d="M811 324l-632.001 -0.000976562c-3.33301 0 -5 -1.66699 -5 -5v-190c0 -9.33301 3 -17 9 -23c64.667 -68.667 144.667 -103 240 -103c100.667 0 184 38.333 250 115h57c-36.667 -42.667 -82 -76 -136 -100s-111.667 -36 -173 -36
c-70.667 0 -135.834 15.833 -195.501 47.5s-107 74.334 -142 128.001s-52.5 112.167 -52.5 175.5s17.5 121.833 52.5 175.5s82.333 96.334 142 128.001s124.834 47.5 195.501 47.5s135.834 -15.833 195.501 -47.5s107 -74.334 142 -128.001s52.5 -112.167 52.5 -175.5v-9z
M667.999 539.999c0 9.33301 -3.33301 17.333 -10 24c-64.667 66 -143 99 -235 99c-93.333 0 -173 -34 -239 -102c-6.66699 -6.66699 -10 -14.667 -10 -24v-188c0 -4 1.66699 -6 5 -6h485c2.66699 0 4 2 4 6v191z" />
    <glyph glyph-name="arrowleft" unicode="&#x2190;" horiz-adv-x="582" 
d="M538 211h-269l12 -130l-281 205l281 204l-12 -129h269v-150z" />
    <glyph glyph-name="arrowup" unicode="&#x2191;" horiz-adv-x="582" 
d="M216 17v269l-130 -12l205 281l204 -281l-129 12v-269h-150z" />
    <glyph glyph-name="arrowright" unicode="&#x2192;" horiz-adv-x="582" 
d="M584 286l-281 -205l12 130h-268v150h268l-12 129z" />
    <glyph glyph-name="arrowdown" unicode="&#x2193;" horiz-adv-x="582" 
d="M366 555v-269l130 12l-205 -281l-204 281l129 -12v269h150z" />
    <glyph glyph-name="partialdiff" unicode="&#x2202;" horiz-adv-x="575" 
d="M150 19.5c-39.333 21 -69.499 49.3359 -90.499 85.0029s-31.5 74.834 -31.5 117.501c0 42 9.33301 80.833 28 116.5s44.167 64 76.5 85s68.166 31.5 107.499 31.5c71.333 0 122.666 -26 153.999 -78c-38.667 99.333 -109 176.333 -211 231l114 77
c44 -26.667 85 -61.834 123 -105.501s68.833 -93.334 92.5 -149.001s35.5 -112.834 35.5 -171.501c0 -54.667 -10.5 -102.334 -31.5 -143.001s-51.167 -72.167 -90.5 -94.5s-85.666 -33.5 -138.999 -33.5c-52 0 -97.667 10.5 -137 31.5zM370.501 143.503
c20.333 19.667 30.5 45.834 30.5 78.501c0 32 -10.167 57.833 -30.5 77.5s-48.166 29.5 -83.499 29.5c-34.667 0 -62 -9.83301 -82 -29.5s-30 -45.5 -30 -77.5c0 -32.667 10 -58.834 30 -78.501s47.333 -29.5 82 -29.5c35.333 0 63.166 9.83301 83.499 29.5z" />
    <glyph glyph-name="uni2206" unicode="&#x2206;" horiz-adv-x="692" 
d="M700 0h-708l254 667h200zM476 140l-130 369l-130 -369h260z" />
    <glyph glyph-name="product" unicode="&#x220f;" horiz-adv-x="811" 
d="M685 -90h-159v618h-240v-618h-160v618h-103v139h765v-139h-103v-618z" />
    <glyph glyph-name="summation" unicode="&#x2211;" horiz-adv-x="589" 
d="M44 528v139h502v-139h-303l191 -232l-198 -246h310v-140h-503v140l195 245z" />
    <glyph glyph-name="minus" unicode="&#x2212;" horiz-adv-x="506" 
d="M477 378v-86h-448v86h448z" />
    <glyph glyph-name="radical" unicode="&#x221a;" horiz-adv-x="670" 
d="M542 667h105l-249 -667h-92l-107 295l-124 -43l-26 83l212 70l93 -263z" />
    <glyph glyph-name="infinity" unicode="&#x221e;" horiz-adv-x="700" 
d="M104 180.5c-25.333 17 -44.167 39.333 -56.5 67s-18.5 57.167 -18.5 88.5s6 60.666 18 87.999s30.833 49.5 56.5 66.5s57.5 25.5 95.5 25.5c32 0 61.5 -9 88.5 -27s47.833 -41.333 62.5 -70c14.667 28.667 35.5 52 62.5 70s56.5 27 88.5 27c38 0 69.833 -8.5 95.5 -25.5
s44.5 -39.333 56.5 -67s18 -57.167 18 -88.5c0 -49.333 -14.167 -91.666 -42.5 -126.999s-70.833 -53 -127.5 -53c-32 0 -61.5 9 -88.5 27s-47.833 41.333 -62.5 70c-14.667 -28.667 -35.5 -52 -62.5 -70s-56.5 -27 -88.5 -27c-38 0 -69.667 8.5 -95 25.5zM269.999 265.5
c17.333 17 31.001 40.501 41.001 70.501c-10 30 -23.5 53.333 -40.5 70s-36.5 25 -58.5 25c-26 0 -47.5 -8.66699 -64.5 -26s-25.5 -40.333 -25.5 -69s8.5 -51.834 25.5 -69.501s38.5 -26.5 64.5 -26.5c21.333 0 40.666 8.5 57.999 25.5zM552.5 266.501
c17 17 25.5 39.834 25.5 68.501c0 29.333 -8.33301 52.666 -25 69.999s-38 26 -64 26c-22 0 -41.5 -8.5 -58.5 -25.5s-30.5 -40.5 -40.5 -70.5c10 -30 23.5 -53.167 40.5 -69.5s36.5 -24.5 58.5 -24.5c25.333 0 46.5 8.5 63.5 25.5z" />
    <glyph glyph-name="integral" unicode="&#x222b;" horiz-adv-x="381" 
d="M17 -100v93.001h61c17.333 0 32 7 44 21s18 31.667 18 53v534c0 33.333 7.5 62.666 22.5 87.999s35 44.833 60 58.5s51.833 20.5 80.5 20.5h61v-93h-61c-17.333 0 -32 -6.66699 -44 -20s-18 -31 -18 -53v-536c0 -33.333 -7.5 -62.5 -22.5 -87.5s-35 -44.333 -60 -58
s-51.833 -20.5 -80.5 -20.5h-61z" />
    <glyph glyph-name="approxequal" unicode="&#x2248;" horiz-adv-x="506" 
d="M29 472c33.333 -19.333 70.6689 -28.998 112.002 -28.998c19.333 0 35.5 1.83301 48.5 5.5s30.833 9.5 53.5 17.5c22 9.33301 41.5 16.166 58.5 20.499s37.833 6.5 62.5 6.5c19.333 0 39.166 -2 59.499 -6s38.166 -9.33301 53.499 -16v-93c-35.333 19.333 -73 29 -113 29
c-20 0 -37.167 -2 -51.5 -6s-30.833 -9.66699 -49.5 -17c-22 -8.66699 -41.667 -15.334 -59 -20.001s-38.333 -7 -63 -7c-19.333 0 -38.833 2 -58.5 6s-37.5 9.33301 -53.5 16v93zM29.0029 291.002c33.333 -19.333 70.6699 -28.998 112.003 -28.998
c19.333 0 35.5 1.83301 48.5 5.5s30.833 9.5 53.5 17.5c22 9.33301 41.5 16.166 58.5 20.499s37.833 6.5 62.5 6.5c19.333 0 39.166 -2 59.499 -6s38.166 -9.66699 53.499 -17v-93c-34.667 20 -72.334 30 -113.001 30c-20 0 -37.167 -2 -51.5 -6s-30.833 -9.66699 -49.5 -17
c-22 -8.66699 -41.667 -15.334 -59 -20.001s-38.333 -7 -63 -7c-19.333 0 -39 2 -59 6s-37.667 9.33301 -53 16v93z" />
    <glyph glyph-name="notequal" unicode="&#x2260;" horiz-adv-x="506" 
d="M141 93h-82l66 105h-96v86h151l64 100h-215v87h270l66 103h83l-66 -103h95v-87h-150l-65 -100h215v-86h-270z" />
    <glyph glyph-name="lessequal" unicode="&#x2264;" horiz-adv-x="506" 
d="M477 113l-448 193v103l448 194v-103l-349 -143l349 -142v-102zM477 0h-448v86h448v-86z" />
    <glyph glyph-name="greaterequal" unicode="&#x2265;" horiz-adv-x="506" 
d="M476 306l-448 -193v102l350 142l-350 143v103l448 -194v-103zM477 0h-448v86h448v-86z" />
    <glyph glyph-name="uni22B2" unicode="&#x22b2;" horiz-adv-x="587" 
d="M589 286l-535 -309v618z" />
    <glyph glyph-name="uni22B3" unicode="&#x22b3;" horiz-adv-x="587" 
d="M535 595v-618l-535 309z" />
    <glyph glyph-name="dotmath" unicode="&#x22c5;" horiz-adv-x="208" 
d="M163 246c0 -16 -5.66797 -29.834 -17.001 -41.501s-25.333 -17.5 -42 -17.5s-30.667 5.83301 -42 17.5s-17 25.5 -17 41.5c0 14.667 6 27.834 18 39.501s25.667 17.5 41 17.5c14.667 0 28.334 -5.33301 41.001 -16c12 -12 18 -25.667 18 -41z" />
    <glyph glyph-name="uni2318" unicode="&#x2318;" horiz-adv-x="667" 
d="M592.5 75c-21.667 -22 -47.835 -33 -78.502 -33s-57 11 -79 33s-33 48.333 -33 79v58h-137v-58c0 -30.667 -11 -57 -33 -79s-48.333 -33 -79 -33s-56.834 11 -78.501 33s-32.5 48.333 -32.5 79s10.833 56.834 32.5 78.501s47.834 32.5 78.501 32.5h58v137h-57
c-30.667 0 -57 11 -79 33s-33 48.333 -33 79s11 56.834 33 78.501s48.333 32.5 79 32.5s56.834 -10.833 78.501 -32.5s32.5 -47.834 32.5 -78.501v-59h137v59c0 30.667 11 56.834 33 78.501s48.333 32.5 79 32.5s56.834 -10.833 78.501 -32.5s32.5 -47.834 32.5 -78.501
s-10.833 -57 -32.5 -79s-47.834 -33 -78.501 -33h-58v-137h58c30.667 0 56.834 -10.833 78.501 -32.5s32.5 -47.834 32.5 -78.501s-10.833 -57 -32.5 -79zM210.999 514c0 16 -5.66797 29.667 -17.001 41s-24.666 17 -39.999 17c-16.667 0 -30.667 -5.66699 -42 -17
s-17 -25 -17 -41s5.66699 -29.833 17 -41.5s25.333 -17.5 42 -17.5h57v59zM554.498 555c-11.667 11.333 -25.167 17 -40.5 17c-16 0 -29.667 -5.66699 -41 -17s-17 -25 -17 -41v-59h58c15.333 0 28.833 5.83301 40.5 17.5s17.5 25.5 17.5 41.5s-5.83301 29.667 -17.5 41z
M264.998 265h137v137h-137v-137zM152.998 212c-16 0 -29.667 -5.83301 -41 -17.5s-17 -25.167 -17 -40.5c0 -16.667 5.66699 -30.667 17 -42s25 -17 41 -17s29.667 5.66699 41 17s17 25.333 17 42v58h-58zM554.998 194.5c-11.333 11.667 -25 17.5 -41 17.5h-58v-58
c0 -16.667 5.66699 -30.667 17 -42s25 -17 41 -17s29.667 5.66699 41 17s17 25.333 17 42c0 15.333 -5.66699 28.833 -17 40.5z" />
    <glyph glyph-name="filledbox" unicode="&#x25a0;" horiz-adv-x="661" 
d="M47 572h571v-572h-571v572z" />
    <glyph glyph-name="triagup" unicode="&#x25b2;" horiz-adv-x="616" 
d="M-2 30l309 535l310 -536z" />
    <glyph glyph-name="triagdn" unicode="&#x25bc;" horiz-adv-x="616" 
d="M307 -25l-309 535h619z" />
    <glyph glyph-name="lozenge" unicode="&#x25ca;" horiz-adv-x="375" 
d="M198 667l158 -333l-158 -334h-21l-158 334l158 333h21zM187 626l-132 -292l133 -293l132 293z" />
    <glyph glyph-name="uni25CF" unicode="&#x25cf;" horiz-adv-x="695" 
d="M604 136c-26.667 -45.333 -62.667 -81.333 -108 -108s-95 -40 -149 -40s-103.667 13.333 -149 40s-81.333 62.667 -108 108s-40 95 -40 149s13.333 103.667 40 149s62.667 81.333 108 108s95 40 149 40s103.667 -13.333 149 -40s81.333 -62.667 108 -108s40 -95 40 -149
s-13.333 -103.667 -40 -149z" />
    <glyph glyph-name="uni2605" unicode="&#x2605;" horiz-adv-x="759" 
d="M379 697l90 -276h290l-235 -171l90 -275l-235 170l-234 -170l89 275l-234 171h290z" />
    <glyph glyph-name="uni2610" unicode="&#x2610;" horiz-adv-x="661" 
d="M45 572h571v-572h-571v572zM140 486v-400h382v400h-382z" />
    <glyph glyph-name="diamond" unicode="&#x2666;" horiz-adv-x="501" 
d="M501 285l-251 -250l-250 250l250 251z" />
    <glyph glyph-name="uni2713" unicode="&#x2713;" horiz-adv-x="531" 
d="M531 698l-329 -607l-202 246l67 63l122 -147l268 490z" />
    <glyph glyph-name="guillemotleft.case" unicode="&#xf6b6;" horiz-adv-x="552" 
d="M320 519l-160 -177l160 -180h-130l-160 180l160 177h130zM522 519l-160 -177l160 -180h-129l-160 180l160 177h129z" />
    <glyph glyph-name="guillemotright.case" unicode="&#xf6b7;" horiz-adv-x="552" 
d="M30 519h130l160 -177l-160 -180h-130l160 180zM233 519h129l160 -177l-160 -180h-129l160 180z" />
    <glyph glyph-name="guilsinglleft.case" unicode="&#xf6b8;" horiz-adv-x="350" 
d="M320 519l-160 -177l160 -180h-130l-160 180l160 177h130z" />
    <glyph glyph-name="guilsinglright.case" unicode="&#xf6b9;" horiz-adv-x="350" 
d="M30 519h130l160 -177l-160 -180h-130l160 180z" />
    <glyph glyph-name="hyphen.case" unicode="&#xf6ba;" horiz-adv-x="300" 
d="M270 281h-240v120h240v-120z" />
    <glyph glyph-name="endash.case" unicode="&#xf6bb;" horiz-adv-x="593" 
d="M563 281h-533v120h533v-120z" />
    <glyph glyph-name="emdash.case" unicode="&#xf6bc;" horiz-adv-x="833" 
d="M803 281h-773v120h773v-120z" />
    <glyph glyph-name="uniF6C3" unicode="&#xf6c3;" horiz-adv-x="0" 
d="M-81 -224.5c-15.333 -27 -36.334 -49.832 -63.001 -68.499l-47 38c14 7.33301 27.5 18.666 40.5 33.999s21.167 30 24.5 44c-4 -2 -9.66699 -3 -17 -3c-16 0 -29.333 5.5 -40 16.5s-16 25.5 -16 43.5c0 18.667 6.5 34.5 19.5 47.5s28.5 19.5 46.5 19.5
c20.667 0 38.334 -7.66699 53.001 -23s22 -36.333 22 -63c0 -30 -7.66699 -58.5 -23 -85.5z" />
    <glyph glyph-name="uniF8FF" unicode="&#xf8ff;" horiz-adv-x="1624" 
d="M65 667h473l287 -398l-287 -269zM658 667h567l333 -472l-333 -326z" />
    <glyph glyph-name="s.alt" horiz-adv-x="477" 
d="M205 326c14.667 -7.33301 38.0029 -14.9961 70.0029 -22.9961c35.333 -8.66699 64.833 -17.834 88.5 -27.501s44 -24.834 61 -45.501s25.5 -48 25.5 -82s-9.5 -63.167 -28.5 -87.5s-44.333 -42.666 -76 -54.999s-65.834 -18.5 -102.501 -18.5c-50 0 -93 10 -129 30
s-62.667 49 -80 87l107 60c15.333 -42.667 49.333 -64 102 -64c20.667 0 38 4.33301 52 13s21 21 21 37c0 14 -7.5 24.667 -22.5 32s-38.833 15 -71.5 23c-35.333 9.33301 -64.333 18.666 -87 27.999s-42.334 23.666 -59.001 42.999s-25 45 -25 77
c0 32.667 8.83301 61.167 26.5 85.5s41.167 42.833 70.5 55.5s61.666 19 96.999 19c41.333 0 78.333 -9 111 -27s58.334 -44 77.001 -78l-107 -57c-8 16.667 -18.333 29 -31 37s-29.334 12 -50.001 12c-18.667 0 -33.667 -3.83301 -45 -11.5s-17 -17.834 -17 -30.501
c0 -14 7.33301 -24.667 22 -32z" />
    <glyph glyph-name="colon.alt" horiz-adv-x="263" 
d="M75.5 545c13.667 13.333 32.832 20 57.499 20s43.667 -6.66699 57 -20s20 -32.666 20 -57.999s-6.66699 -44.833 -20 -58.5s-32.333 -20.5 -57 -20.5c-25.333 0 -44.666 6.83301 -57.999 20.5s-20 33.167 -20 58.5s6.83301 44.666 20.5 57.999zM74.998 201.5
c13.333 13.667 32.666 20.5 57.999 20.5c24.667 0 43.667 -6.83301 57 -20.5s20 -33.167 20 -58.5s-6.66699 -44.833 -20 -58.5s-32.333 -20.5 -57 -20.5c-25.333 0 -44.666 6.83301 -57.999 20.5s-20 33.167 -20 58.5s6.66699 44.833 20 58.5z" />
    <glyph glyph-name="lowercaseshoulder" 
d="M358 295c0 32 -9.00098 55.1689 -27.001 69.502s-39.333 21.5 -64 21.5c-24 0 -44.333 -8.83301 -61 -26.5s-25 -45.167 -25 -82.5l-63 -1c-1.33301 -10.667 -2 12.666 -2 69.999c0 20 8.33301 43.167 25 69.5s39.334 48.666 68.001 66.999s59.667 27.5 93 27.5
c29.333 0 59 -6.33301 89 -19s55.667 -35 77 -67s32 -75 32 -129h-142z" />
    <glyph glyph-name="lowercasestem" 
d="M223 0v500h142v-500h-142z" />
    <glyph glyph-name="lowercaseshortstem" 
d="M358 0v299h142v-299h-142z" />
    <glyph glyph-name="lowercasealoop" 
d="M480 118.5c-24 -40.333 -55.833 -72.502 -95.5 -96.502s-82.167 -36 -127.5 -36c-52 0 -96.833 11.333 -134.5 34s-66.5 53.834 -86.5 93.501s-30 84.834 -30 135.501s10 96.167 30 136.5s48.833 71.833 86.5 94.5s82.5 34 134.5 34c44.667 0 87 -12 127 -36
s72 -56.5 96 -97.5s36 -84.833 36 -131.5s-12 -90.167 -36 -130.5zM370 157.998c25.333 24 38 55 38 93c0 36.667 -12.667 66.667 -38 90s-56.666 35 -93.999 35s-67.833 -11.667 -91.5 -35s-35.5 -54 -35.5 -92s11.833 -68.667 35.5 -92s54.167 -35 91.5 -35
s68.666 12 93.999 36z" />
    <glyph glyph-name="newGlyph" 
 />
    <glyph glyph-name="lowercaseftop" 
d="M274 571l-19 1c-29.333 0 -52.333 -5.5 -69 -16.5s-25 -27.167 -25 -48.5v-115h-143v80c0 46 10.5 88 31.5 126s51 67.5 90 88.5s83.833 29.833 134.5 26.5v-142z" />
    <glyph glyph-name="lowercasegdescender" 
d="M426 500h142.999v-475c0 -46.667 -12.167 -88 -36.5 -124s-57.833 -64 -100.5 -84s-90.667 -30 -144 -30c-58 0 -111.167 11.167 -159.5 33.5s-82.166 51.166 -101.499 86.499l122 71c8.66699 -17.333 26 -31.666 52 -42.999s56.333 -17 91 -17c38.667 0 70.667 10 96 30
s38 45.667 38 77v475z" />
    <glyph glyph-name="lowercasethook" 
d="M268 0c-33.333 -3.33301 -60.999 -5 -82.999 -5c-56 0 -97.667 12.5 -125 37.5s-41 70.5 -41 136.5v140h142v-131c0 -18.667 5.16699 -31.667 15.5 -39s26.166 -11 47.499 -11c13.333 0 28 1 44 3v-131z" />
    <glyph glyph-name="lowercaser" 
d="M307 375c-4.66699 2 -12.332 3 -22.999 3c-40.667 0 -73.834 -11.5 -99.501 -34.5s-38.5 -53.167 -38.5 -90.5l-26 23c4 2.66699 7.5 11.834 10.5 27.501s4.5 38.5 4.5 68.5c0 20.667 6.66699 41.667 20 63s32.5 39.166 57.5 53.499s54.5 21.5 88.5 21.5h16z" />
    <glyph glyph-name="lowercasetcross" horiz-adv-x="1200" 
d="M144 373v127h334v-127h-334z" />
    <glyph glyph-name="ascenderstem" 
d="M56 0v700h151v-700h-151z" />
    <glyph glyph-name="uppercasehoriz" horiz-adv-x="792" 
d="M197 558v142h214v-142h-214z" />
    <glyph glyph-name="idot" horiz-adv-x="345" 
d="M105.5 572.5c-15 14.333 -22.5 34.1699 -22.5 59.5029s7.5 45.166 22.5 59.499s35.833 21.5 62.5 21.5c26 0 46.667 -7.33301 62 -22s23 -34.334 23 -59.001s-7.66699 -44.334 -23 -59.001s-36 -22 -62 -22c-26.667 0 -47.5 7.16699 -62.5 21.5z" />
    </font>
</defs>
</svg>
